<svg version="1.1" xmlns="http://www.w3.org/2000/svg" viewBox="0 0 2515 2487.6470588235297" width="2515" height="2487.6470588235297" filter="invert(93%) hue-rotate(180deg)">
  <!-- svg-source:excalidraw -->
  
  <defs>
    <style class="style-fonts">
      @font-face {
        font-family: "Virgil";
        src: url("https://excalidraw.com/Virgil.woff2");
      }
      @font-face {
        font-family: "Cascadia";
        src: url("https://excalidraw.com/Cascadia.woff2");
      }
      @font-face {
        font-family: "Assistant";
        src: url("https://excalidraw.com/Assistant-Regular.woff2");
      }
    </style>
    
  </defs>
  <g stroke-linecap="round" transform="translate(790 190) rotate(0 244.04475882541624 61.94507873608484)"><path d="M30.97 0 C187.77 -0.37, 343.08 -0.53, 457.12 0 M30.97 0 C165.79 -1.32, 300.63 -0.86, 457.12 0 M457.12 0 C477.05 0.02, 489.72 11.27, 488.09 30.97 M457.12 0 C475.76 0.64, 490.18 12.56, 488.09 30.97 M488.09 30.97 C488.19 45.2, 488.35 61.14, 488.09 92.92 M488.09 30.97 C488.12 47.61, 488.65 65.15, 488.09 92.92 M488.09 92.92 C486.61 112.73, 478.95 123.66, 457.12 123.89 M488.09 92.92 C488.65 113.88, 475.81 123.69, 457.12 123.89 M457.12 123.89 C337.09 124.6, 217.12 124.74, 30.97 123.89 M457.12 123.89 C348.91 125.49, 240.3 126.4, 30.97 123.89 M30.97 123.89 C11.33 122.38, -0.28 112.81, 0 92.92 M30.97 123.89 C11.67 122.9, 1.08 114.54, 0 92.92 M0 92.92 C0.23 74.83, 0.42 59.17, 0 30.97 M0 92.92 C0.63 77.59, -0.23 61.3, 0 30.97 M0 30.97 C-0.34 9.83, 9.03 -0.45, 30.97 0 M0 30.97 C-0.18 8.58, 11.29 -2.26, 30.97 0" stroke="#1971c2" stroke-width="2" fill="none"></path></g><g transform="translate(859.5197649289321 234.44507873608484) rotate(0 174.52499389648438 17.5)"><text x="174.52499389648438" y="24.528" font-family="Virgil, Segoe UI Emoji" font-size="28px" fill="#1971c2" text-anchor="middle" style="white-space: pre;" direction="ltr" dominant-baseline="alphabetic">IP address / Domain name</text></g><g stroke-linecap="round" transform="translate(790 510) rotate(0 250 61.94507873608484)"><path d="M30.97 0 C181.76 1.81, 332.2 1.96, 469.03 0 M30.97 0 C130.51 0.2, 230.74 -0.04, 469.03 0 M469.03 0 C491.29 -0.06, 498.05 10.37, 500 30.97 M469.03 0 C490.71 -0.91, 500.07 8.93, 500 30.97 M500 30.97 C502.33 50.09, 500.32 67.74, 500 92.92 M500 30.97 C499.89 43.36, 500.07 57.27, 500 92.92 M500 92.92 C499.07 114.2, 491.17 124.81, 469.03 123.89 M500 92.92 C501.28 113.07, 489.7 122.74, 469.03 123.89 M469.03 123.89 C328.32 124.11, 188.93 125.44, 30.97 123.89 M469.03 123.89 C297.74 122.96, 126.53 122.81, 30.97 123.89 M30.97 123.89 C9.89 123.02, 1.17 111.66, 0 92.92 M30.97 123.89 C9.73 123.6, 1.49 112.48, 0 92.92 M0 92.92 C0.36 76.2, 1.33 60.11, 0 30.97 M0 92.92 C-0.45 71.78, -1.09 52.78, 0 30.97 M0 30.97 C-0.88 10.61, 11.01 0.1, 30.97 0 M0 30.97 C0.81 8.54, 9.37 -1.91, 30.97 0" stroke="#1971c2" stroke-width="2" fill="none"></path></g><g transform="translate(811.8500061035156 536.9450787360848) rotate(0 228.14999389648438 35)"><text x="228.14999389648438" y="24.528" font-family="Virgil, Segoe UI Emoji" font-size="28px" fill="#1971c2" text-anchor="middle" style="white-space: pre;" direction="ltr" dominant-baseline="alphabetic">Check for web server on common </text><text x="228.14999389648438" y="59.528" font-family="Virgil, Segoe UI Emoji" font-size="28px" fill="#1971c2" text-anchor="middle" style="white-space: pre;" direction="ltr" dominant-baseline="alphabetic">ports (80,443,8080)</text></g><g stroke-linecap="round"><g transform="translate(1044.0952263771405 314.8901574721697) rotate(0 -0.33826564352420974 97.05492126391516)"><path d="M-1.2 -0.08 C-1.27 32.27, -1.57 161.1, -1.45 193.29 M0.37 -1.17 C0.78 31.39, 1.12 161.89, 0.86 194.39" stroke="#1971c2" stroke-width="2" fill="none"></path></g><g transform="translate(1044.0952263771405 314.8901574721697) rotate(0 -0.33826564352420974 97.05492126391516)"><path d="M-7.65 170.89 C-6.14 174.71, -5.55 181.32, 0.86 194.39 M-7.65 170.89 C-6.1 175.33, -4.23 180.02, 0.86 194.39" stroke="#1971c2" stroke-width="2" fill="none"></path></g><g transform="translate(1044.0952263771405 314.8901574721697) rotate(0 -0.33826564352420974 97.05492126391516)"><path d="M9.45 170.92 C7.3 174.56, 4.24 181.17, 0.86 194.39 M9.45 170.92 C7.35 175.29, 5.58 179.97, 0.86 194.39" stroke="#1971c2" stroke-width="2" fill="none"></path></g></g><mask></mask><g stroke-linecap="round" transform="translate(1490 510) rotate(0 250 61.94507873608484)"><path d="M30.97 0 C169.43 -3.01, 305.67 -2.05, 469.03 0 M30.97 0 C172.8 -1.7, 314.26 -2.12, 469.03 0 M469.03 0 C491.36 -0.08, 501.57 9.47, 500 30.97 M469.03 0 C490.47 -1.06, 501.45 8.3, 500 30.97 M500 30.97 C500.35 52.21, 499.28 74.68, 500 92.92 M500 30.97 C501.19 50.72, 500.9 68.49, 500 92.92 M500 92.92 C500.03 112.08, 488.31 122.57, 469.03 123.89 M500 92.92 C497.73 114.23, 489.25 124.79, 469.03 123.89 M469.03 123.89 C293.61 125.13, 119.89 124.37, 30.97 123.89 M469.03 123.89 C379.1 125.49, 289.83 125.3, 30.97 123.89 M30.97 123.89 C11.68 122.69, -0.53 113.87, 0 92.92 M30.97 123.89 C12.23 124.57, 1.2 115.61, 0 92.92 M0 92.92 C0.81 70, -1.67 46.39, 0 30.97 M0 92.92 C-0.44 75.92, 0.49 59.12, 0 30.97 M0 30.97 C0.24 9.92, 11.55 -0.48, 30.97 0 M0 30.97 C0.93 12.38, 10.7 1.8, 30.97 0" stroke="#1971c2" stroke-width="2" fill="none"></path></g><g transform="translate(1537.3500061035156 554.4450787360848) rotate(0 202.64999389648438 17.5)"><text x="202.64999389648438" y="24.528" font-family="Virgil, Segoe UI Emoji" font-size="28px" fill="#1971c2" text-anchor="middle" style="white-space: pre;" direction="ltr" dominant-baseline="alphabetic">NMAP scans for other services</text></g><g stroke-linecap="round" transform="translate(90 506.03268205869506) rotate(0 250 61.94507873608484)"><path d="M30.97 0 C136.55 -0.32, 243.35 0.3, 469.03 0 M30.97 0 C178.36 0.71, 325.23 0.74, 469.03 0 M469.03 0 C490.15 0.55, 500.32 12.17, 500 30.97 M469.03 0 C489.53 -1.39, 501.73 10.07, 500 30.97 M500 30.97 C500.14 46.59, 498.6 63.83, 500 92.92 M500 30.97 C500.29 45.5, 500.46 60.73, 500 92.92 M500 92.92 C498.13 114.66, 490.7 122.7, 469.03 123.89 M500 92.92 C498.34 115.66, 490.03 124.57, 469.03 123.89 M469.03 123.89 C317.16 123.69, 165.66 125.64, 30.97 123.89 M469.03 123.89 C336.72 124.94, 203.86 125.04, 30.97 123.89 M30.97 123.89 C8.37 123.87, -0.1 114.96, 0 92.92 M30.97 123.89 C11.54 125.94, -1.37 114.87, 0 92.92 M0 92.92 C1.75 69.51, -1.12 48.2, 0 30.97 M0 92.92 C0.24 69.54, -0.09 46.54, 0 30.97 M0 30.97 C1.17 9.99, 10.8 0.73, 30.97 0 M0 30.97 C-1.16 11.42, 8.25 1.59, 30.97 0" stroke="#1971c2" stroke-width="2" fill="none"></path></g><g transform="translate(123.43333435058594 550.4777607947799) rotate(0 216.56666564941406 17.5)"><text x="216.56666564941406" y="24.528" font-family="Virgil, Segoe UI Emoji" font-size="28px" fill="#1971c2" text-anchor="middle" style="white-space: pre;" direction="ltr" dominant-baseline="alphabetic">VHOST and subdomain research</text></g><g stroke-linecap="round" transform="translate(90 730) rotate(0 100 57.5)"><path d="M28.75 0 C80.44 0.64, 136.89 -0.64, 171.25 0 M28.75 0 C57.66 1.55, 87.04 0.57, 171.25 0 M171.25 0 C192.36 -0.7, 201.21 8.92, 200 28.75 M171.25 0 C191.36 -0.68, 197.98 10.22, 200 28.75 M200 28.75 C199.79 43.87, 200.32 59.35, 200 86.25 M200 28.75 C199.59 50.84, 199.23 73.21, 200 86.25 M200 86.25 C201.57 105.36, 190.66 116.38, 171.25 115 M200 86.25 C199.87 105.48, 188.9 116.78, 171.25 115 M171.25 115 C127.29 112.97, 80.17 113.71, 28.75 115 M171.25 115 C128.93 116.39, 86.13 115.68, 28.75 115 M28.75 115 C10.1 116.32, -0.27 105.37, 0 86.25 M28.75 115 C8.2 115.62, 1.24 106.24, 0 86.25 M0 86.25 C1.44 64.54, 2.1 46.8, 0 28.75 M0 86.25 C0.84 62.64, 0.53 40.75, 0 28.75 M0 28.75 C0.8 9.63, 11.38 -1.15, 28.75 0 M0 28.75 C1.42 7.67, 9.82 -0.36, 28.75 0" stroke="#1971c2" stroke-width="2" fill="none"></path></g><g transform="translate(118.875 735) rotate(0 71.125 52.5)"><text x="71.125" y="24.528" font-family="Virgil, Segoe UI Emoji" font-size="28px" fill="#1971c2" text-anchor="middle" style="white-space: pre;" direction="ltr" dominant-baseline="alphabetic">certificate </text><text x="71.125" y="59.528" font-family="Virgil, Segoe UI Emoji" font-size="28px" fill="#1971c2" text-anchor="middle" style="white-space: pre;" direction="ltr" dominant-baseline="alphabetic">research </text><text x="71.125" y="94.52799999999999" font-family="Virgil, Segoe UI Emoji" font-size="28px" fill="#1971c2" text-anchor="middle" style="white-space: pre;" direction="ltr" dominant-baseline="alphabetic">with crt.sh</text></g><g stroke-linecap="round" transform="translate(390 726.0326820586951) rotate(0 100 60)"><path d="M30 0 C82.7 -1.73, 139.42 0.66, 170 0 M30 0 C72.6 1.07, 116.06 0.3, 170 0 M170 0 C191.8 -1.28, 199.96 8.76, 200 30 M170 0 C188.43 -1.79, 199.14 11.09, 200 30 M200 30 C198.23 43.1, 201.03 57.55, 200 90 M200 30 C199.33 44.55, 199.68 60.95, 200 90 M200 90 C198.47 108.99, 190.02 120.51, 170 120 M200 90 C199.33 111.01, 188.43 121.72, 170 120 M170 120 C115.78 118.88, 62.81 120.3, 30 120 M170 120 C135.77 121.55, 103.06 120.46, 30 120 M30 120 C10.7 118.71, -1.18 111.72, 0 90 M30 120 C9.58 121.74, 1.31 107.94, 0 90 M0 90 C1.4 78.58, 0.02 64.3, 0 30 M0 90 C0.11 69.76, 0.88 49.13, 0 30 M0 30 C0.24 8.85, 9.28 0.93, 30 0 M0 30 C-0.17 12.27, 9.47 1.51, 30 0" stroke="#1971c2" stroke-width="2" fill="none"></path></g><g transform="translate(440.59166717529297 768.5326820586951) rotate(0 49.40833282470703 17.5)"><text x="49.40833282470703" y="24.528" font-family="Virgil, Segoe UI Emoji" font-size="28px" fill="#1971c2" text-anchor="middle" style="white-space: pre;" direction="ltr" dominant-baseline="alphabetic">fuzzing</text></g><g stroke-linecap="round"><g transform="translate(1098.9015747216972 310.92283953086474) rotate(0 323.7992126391514 97.05492126391516)"><path d="M0.78 0.8 C92.43 10, 442.69 23.58, 550.66 55.94 C658.62 88.3, 632.52 171.81, 648.58 194.95 M-0.27 0.18 C91.11 8.98, 441.38 22.1, 549.48 54.25 C657.58 86.4, 632.09 170, 648.33 193.05" stroke="#1971c2" stroke-width="2" fill="none"></path></g><g transform="translate(1098.9015747216972 310.92283953086474) rotate(0 323.7992126391514 97.05492126391516)"><path d="M634.58 172.17 C641.04 178.93, 646.08 188.89, 648.33 193.05 M634.58 172.17 C638.8 179.46, 644.87 188.25, 648.33 193.05" stroke="#1971c2" stroke-width="2" fill="none"></path></g><g transform="translate(1098.9015747216972 310.92283953086474) rotate(0 323.7992126391514 97.05492126391516)"><path d="M651.22 168.22 C651.66 176.53, 650.65 187.91, 648.33 193.05 M651.22 168.22 C649.26 177.06, 649.17 187.32, 648.33 193.05" stroke="#1971c2" stroke-width="2" fill="none"></path></g></g><mask></mask><g stroke-linecap="round"><g transform="translate(987.9489351827219 310.92283953086474) rotate(0 -328.09307211099895 97.05492126391516)"><path d="M-0.75 0.08 C-94.01 9.45, -450.63 24.07, -560.05 56.41 C-669.48 88.75, -641.15 171.26, -657.31 194.12 M1.05 -0.92 C-92.3 8.06, -451.51 21.76, -560.85 54.49 C-670.2 87.21, -638.95 172.12, -655 195.44" stroke="#1971c2" stroke-width="2" fill="none"></path></g><g transform="translate(987.9489351827219 310.92283953086474) rotate(0 -328.09307211099895 97.05492126391516)"><path d="M-658.89 170.74 C-657.71 177.61, -656.21 181.66, -655 195.44 M-658.89 170.74 C-658.58 178.64, -656.42 184.62, -655 195.44" stroke="#1971c2" stroke-width="2" fill="none"></path></g><g transform="translate(987.9489351827219 310.92283953086474) rotate(0 -328.09307211099895 97.05492126391516)"><path d="M-642.11 174.02 C-645.27 179.94, -648.11 183.14, -655 195.44 M-642.11 174.02 C-646.82 180.86, -649.71 185.86, -655 195.44" stroke="#1971c2" stroke-width="2" fill="none"></path></g></g><mask></mask><g stroke-linecap="round"><g transform="translate(342.91807449119733 630.9228395308647) rotate(0 75.9295276126636 47.05492126391516)"><path d="M-0.1 -0.4 C21.52 5.94, 104 21.63, 129.23 37.34 C154.46 53.06, 147.66 84.43, 151.29 93.89 M-1.61 -1.66 C19.94 4.39, 103.26 19.39, 128.57 35.52 C153.87 51.64, 146.51 85.15, 150.22 95.09" stroke="#1971c2" stroke-width="2" fill="none"></path></g><g transform="translate(342.91807449119733 630.9228395308647) rotate(0 75.9295276126636 47.05492126391516)"><path d="M139.2 72.65 C141.25 79.37, 145.73 83.34, 150.22 95.09 M139.2 72.65 C141.63 78.73, 144.4 86.12, 150.22 95.09" stroke="#1971c2" stroke-width="2" fill="none"></path></g><g transform="translate(342.91807449119733 630.9228395308647) rotate(0 75.9295276126636 47.05492126391516)"><path d="M156.2 70.82 C153.84 78, 153.91 82.45, 150.22 95.09 M156.2 70.82 C153.84 77.41, 151.81 85.31, 150.22 95.09" stroke="#1971c2" stroke-width="2" fill="none"></path></g></g><mask></mask><g stroke-linecap="round"><g transform="translate(326.5968152390401 630.9228395308647) rotate(0 -68.11881568442618 47.05492126391516)"><path d="M0.02 -0.73 C-19.04 4.39, -92.03 15.98, -114.58 31.66 C-137.13 47.35, -131.56 83.09, -135.27 93.38 M-1.43 1.49 C-20.66 6.66, -93.41 17.23, -115.76 32.7 C-138.11 48.17, -132 84.08, -135.52 94.32" stroke="#1971c2" stroke-width="2" fill="none"></path></g><g transform="translate(326.5968152390401 630.9228395308647) rotate(0 -68.11881568442618 47.05492126391516)"><path d="M-141.52 70.05 C-140.87 76.13, -139.55 85.26, -135.52 94.32 M-141.52 70.05 C-140.97 75.19, -137.88 81.57, -135.52 94.32" stroke="#1971c2" stroke-width="2" fill="none"></path></g><g transform="translate(326.5968152390401 630.9228395308647) rotate(0 -68.11881568442618 47.05492126391516)"><path d="M-124.51 71.88 C-128.65 77.44, -132.09 86.07, -135.52 94.32 M-124.51 71.88 C-128.03 76.48, -129.02 82.42, -135.52 94.32" stroke="#1971c2" stroke-width="2" fill="none"></path></g></g><mask></mask><g stroke-linecap="round" transform="translate(1650 690) rotate(0 100 90)"><path d="M126.25 22.75 C143.6 41.08, 165.49 61.27, 174.75 68.25 M126.25 22.75 C143.49 37.75, 158.23 53.25, 174.75 68.25 M174.75 68.25 C199.06 91.69, 201.19 89.16, 174.75 113.75 M174.75 68.25 C202.19 90.5, 199.71 91.13, 174.75 113.75 M174.75 113.75 C164.89 125.43, 153.23 135.56, 126.25 157.25 M174.75 113.75 C163.14 123.83, 151.77 134.36, 126.25 157.25 M126.25 157.25 C99.64 179, 100.68 180.74, 75.75 157.25 M126.25 157.25 C99.06 181.15, 99.02 178.91, 75.75 157.25 M75.75 157.25 C65.1 149.18, 52.82 140, 25.25 113.75 M75.75 157.25 C64.52 148.36, 54.93 139.43, 25.25 113.75 M25.25 113.75 C0.51 90.53, -0.92 92.13, 25.25 68.25 M25.25 113.75 C2.26 93.13, -1.6 91.6, 25.25 68.25 M25.25 68.25 C36.39 58.82, 51.44 45.15, 75.75 22.75 M25.25 68.25 C35.69 58.06, 46.16 48.36, 75.75 22.75 M75.75 22.75 C102.2 -1.84, 101.48 1.87, 126.25 22.75 M75.75 22.75 C101.03 2.12, 100.42 -0.08, 126.25 22.75" stroke="#1971c2" stroke-width="2" fill="none"></path></g><g transform="translate(1708.8333320617676 755) rotate(0 41.16666793823242 25)"><text x="41.16666793823242" y="17.52" font-family="Virgil, Segoe UI Emoji" font-size="20px" fill="#1971c2" text-anchor="middle" style="white-space: pre;" direction="ltr" dominant-baseline="alphabetic">is web </text><text x="41.16666793823242" y="42.519999999999996" font-family="Virgil, Segoe UI Emoji" font-size="20px" fill="#1971c2" text-anchor="middle" style="white-space: pre;" direction="ltr" dominant-baseline="alphabetic">service ?</text></g><g stroke-linecap="round"><g transform="translate(1750.2154856700722 634.8901574721697) rotate(0 -0.040182911214174055 27.05950663283005)"><path d="M0.82 0.98 C0.81 9.84, -0.06 45.01, -0.27 53.74 M-0.21 0.45 C-0.38 9.42, -1.13 46.1, -1.31 55.07" stroke="#1e1e1e" stroke-width="2" fill="none"></path></g><g transform="translate(1750.2154856700722 634.8901574721697) rotate(0 -0.040182911214174055 27.05950663283005)"><path d="M-9.38 31.41 C-5.33 37.76, -5.32 44.27, -1.31 55.07 M-9.38 31.41 C-6.97 36.86, -4.98 41.99, -1.31 55.07" stroke="#1e1e1e" stroke-width="2" fill="none"></path></g><g transform="translate(1750.2154856700722 634.8901574721697) rotate(0 -0.040182911214174055 27.05950663283005)"><path d="M7.72 31.76 C6.92 38.13, 2.08 44.54, -1.31 55.07 M7.72 31.76 C6.08 36.99, 4.03 42.04, -1.31 55.07" stroke="#1e1e1e" stroke-width="2" fill="none"></path></g></g><mask></mask><g stroke-linecap="round" transform="translate(790 910) rotate(0 250 50)"><path d="M25 0 C138.63 -0.24, 254.83 0.84, 475 0 M25 0 C156.01 1.33, 286.64 0.97, 475 0 M475 0 C489.76 0.28, 501.65 9.28, 500 25 M475 0 C490.57 0.86, 500.06 9.96, 500 25 M500 25 C499.55 42.52, 499.1 57.81, 500 75 M500 25 C499.39 35.76, 499.51 45.4, 500 75 M500 75 C498.47 91.6, 492.68 99.95, 475 100 M500 75 C499.38 93.81, 489.7 102.25, 475 100 M475 100 C304.96 101.26, 133.56 101.68, 25 100 M475 100 C338.5 98.13, 202.26 98.11, 25 100 M25 100 C6.94 101.72, -0.91 91.74, 0 75 M25 100 C10.39 100.7, -1.86 93.56, 0 75 M0 75 C-0.81 55.85, -0.41 35.41, 0 25 M0 75 C-0.69 61.08, -0.1 48.24, 0 25 M0 25 C-1.53 7.66, 10.27 0.18, 25 0 M0 25 C-0.4 7.75, 7.19 1.33, 25 0" stroke="#1971c2" stroke-width="2" fill="none"></path></g><g transform="translate(873.3583374023438 942.5) rotate(0 166.64166259765625 17.5)"><text x="166.64166259765625" y="24.528" font-family="Virgil, Segoe UI Emoji" font-size="28px" fill="#1971c2" text-anchor="middle" style="white-space: pre;" direction="ltr" dominant-baseline="alphabetic">Web server enumeration</text></g><g stroke-linecap="round"><g transform="translate(1050 634.8901574721697) rotate(0 0 137.05492126391516)"><path d="M0.54 0.74 C0.37 46.63, -0.68 229.27, -0.66 274.83 M-0.64 0.09 C-0.44 45.68, 1.56 227.19, 1.71 273.09" stroke="#1971c2" stroke-width="2" fill="none"></path></g><g transform="translate(1050 634.8901574721697) rotate(0 0 137.05492126391516)"><path d="M-7.02 249.67 C-3.01 256.22, -0.18 266.13, 1.71 273.09 M-7.02 249.67 C-4.65 255.8, -1.19 264.57, 1.71 273.09" stroke="#1971c2" stroke-width="2" fill="none"></path></g><g transform="translate(1050 634.8901574721697) rotate(0 0 137.05492126391516)"><path d="M10.08 249.54 C8.48 256.21, 5.7 266.16, 1.71 273.09 M10.08 249.54 C7.26 255.75, 5.53 264.55, 1.71 273.09" stroke="#1971c2" stroke-width="2" fill="none"></path></g></g><mask></mask><g mask="url(#mask-0MRH_sIz2NtEj68wo_q7C)" stroke-linecap="round"><g transform="translate(1654.3394940573637 771.4687901009712) rotate(0 -291.34218604135447 68.76560494951437)"><path d="M-1.06 -0.28 C-61.99 2.79, -268.36 -3.87, -365.1 19.15 C-461.84 42.17, -545.21 118.08, -581.5 137.86 M0.58 -1.47 C-60 1.18, -265.75 -6.12, -362.79 17.35 C-459.82 40.82, -545 119.06, -581.64 139.35" stroke="#1971c2" stroke-width="2" fill="none"></path></g><g transform="translate(1654.3394940573637 771.4687901009712) rotate(0 -291.34218604135447 68.76560494951437)"><path d="M-567.09 119.02 C-572.33 124.49, -575.75 134.59, -581.64 139.35 M-567.09 119.02 C-571.59 124.97, -575.69 131.74, -581.64 139.35" stroke="#1971c2" stroke-width="2" fill="none"></path></g><g transform="translate(1654.3394940573637 771.4687901009712) rotate(0 -291.34218604135447 68.76560494951437)"><path d="M-557.43 133.14 C-566.02 133.75, -572.7 139.09, -581.64 139.35 M-557.43 133.14 C-565.08 134.49, -572.34 136.64, -581.64 139.35" stroke="#1971c2" stroke-width="2" fill="none"></path></g></g><mask id="mask-0MRH_sIz2NtEj68wo_q7C"><rect x="0" y="0" fill="#fff" width="2337.0238661400726" height="1009"></rect><rect x="1272.0750007629395" y="777.5" fill="#000" width="35.849998474121094" height="25" opacity="1"></rect></mask><g transform="translate(1272.0750007629395 777.5) rotate(0 91.73311259289233 62.90895362458656)"><text x="17.924999237060547" y="17.52" font-family="Virgil, Segoe UI Emoji" font-size="20px" fill="#1971c2" text-anchor="middle" style="white-space: pre;" direction="ltr" dominant-baseline="alphabetic">YES</text></g><g stroke-linecap="round" transform="translate(1490 990) rotate(0 250 50)"><path d="M25 0 C132.76 -1.86, 242.08 -1.35, 475 0 M25 0 C171.74 2.18, 317.81 1.57, 475 0 M475 0 C489.69 0.74, 501.76 9.25, 500 25 M475 0 C491 -1.87, 501.09 7.66, 500 25 M500 25 C501.05 42.68, 499.59 60.15, 500 75 M500 25 C500.57 41.88, 501.27 59.11, 500 75 M500 75 C498.58 90.75, 491.89 101.43, 475 100 M500 75 C501.44 92.45, 493.76 97.91, 475 100 M475 100 C336.47 101.75, 196.6 100.75, 25 100 M475 100 C323.5 101.45, 171.26 101.94, 25 100 M25 100 C7.39 100.31, -0.64 92.44, 0 75 M25 100 C7.48 100.88, 1.82 91.89, 0 75 M0 75 C1.41 58.85, 1.48 42.15, 0 25 M0 75 C0.61 57.17, 1.37 41.01, 0 25 M0 25 C0.68 7.43, 10.33 -0.73, 25 0 M0 25 C-0.79 7.34, 6.85 0.73, 25 0" stroke="#e03131" stroke-width="2" fill="none"></path></g><g transform="translate(1516.7833404541016 1015) rotate(0 223.21665954589844 25)"><text x="223.21665954589844" y="17.52" font-family="Virgil, Segoe UI Emoji" font-size="20px" fill="#e03131" text-anchor="middle" style="white-space: pre;" direction="ltr" dominant-baseline="alphabetic">If possible, fetch version to check for CVE with </text><text x="223.21665954589844" y="42.519999999999996" font-family="Virgil, Segoe UI Emoji" font-size="20px" fill="#e03131" text-anchor="middle" style="white-space: pre;" direction="ltr" dominant-baseline="alphabetic">vulndb and cvesearch</text></g><g mask="url(#mask-Z2Ges8r_p-XrcjCpx0AZa)" stroke-linecap="round"><g transform="translate(1750 871) rotate(0 0 59)"><path d="M0.69 -0.38 C0.53 19.47, 0.26 98.33, 0.03 117.92 M-0.41 -1.62 C-0.8 18.52, -0.67 99.48, -0.9 119.41" stroke="#e03131" stroke-width="2" fill="none"></path></g><g transform="translate(1750 871) rotate(0 0 59)"><path d="M-9.35 95.89 C-6.98 104.85, -3.27 112.62, -0.9 119.41 M-9.35 95.89 C-6.75 100.34, -6.2 106.25, -0.9 119.41" stroke="#e03131" stroke-width="2" fill="none"></path></g><g transform="translate(1750 871) rotate(0 0 59)"><path d="M7.75 95.96 C3.6 105, 0.8 112.73, -0.9 119.41 M7.75 95.96 C6.45 100.4, 3.11 106.3, -0.9 119.41" stroke="#e03131" stroke-width="2" fill="none"></path></g></g><mask id="mask-Z2Ges8r_p-XrcjCpx0AZa"><rect x="0" y="0" fill="#fff" width="1850" height="1089"></rect><rect x="1734.9499998092651" y="917.5" fill="#000" width="30.100000381469727" height="25" opacity="1"></rect></mask><g transform="translate(1734.9499998092651 917.5) rotate(0 14.943822970692963 12.397915509929874)"><text x="15.050000190734863" y="17.52" font-family="Virgil, Segoe UI Emoji" font-size="20px" fill="#e03131" text-anchor="middle" style="white-space: pre;" direction="ltr" dominant-baseline="alphabetic">NO</text></g><g stroke-linecap="round" transform="translate(690 1290) rotate(0 150 57.5)"><path d="M28.75 0 C112.52 0.38, 200.77 -2.13, 271.25 0 M28.75 0 C119.8 0.45, 211.37 1.05, 271.25 0 M271.25 0 C290.38 0.84, 300.19 10.57, 300 28.75 M271.25 0 C288.7 2.15, 302.26 8.53, 300 28.75 M300 28.75 C300.53 50.76, 300.73 71.31, 300 86.25 M300 28.75 C300.82 41.97, 300.53 53.56, 300 86.25 M300 86.25 C298.08 106.71, 290.81 114.79, 271.25 115 M300 86.25 C300 103.53, 290.99 113.62, 271.25 115 M271.25 115 C202.75 115.96, 134.97 115.34, 28.75 115 M271.25 115 C211.21 114.07, 150.42 113.82, 28.75 115 M28.75 115 C8.08 116.65, 0.69 105.29, 0 86.25 M28.75 115 C8.32 115.29, 0.88 104.57, 0 86.25 M0 86.25 C1.37 72.38, -2.23 61.42, 0 28.75 M0 86.25 C0.7 69.39, 0.72 50.39, 0 28.75 M0 28.75 C-0.17 7.6, 8.47 -1.07, 28.75 0 M0 28.75 C-1.52 9.94, 7.75 2.1, 28.75 0" stroke="#1971c2" stroke-width="2" fill="none"></path></g><g transform="translate(733.2750015258789 1312.5) rotate(0 106.7249984741211 35)"><text x="106.7249984741211" y="24.528" font-family="Virgil, Segoe UI Emoji" font-size="28px" fill="#1971c2" text-anchor="middle" style="white-space: pre;" direction="ltr" dominant-baseline="alphabetic">Crawling </text><text x="106.7249984741211" y="59.528" font-family="Virgil, Segoe UI Emoji" font-size="28px" fill="#1971c2" text-anchor="middle" style="white-space: pre;" direction="ltr" dominant-baseline="alphabetic">(custom engine)</text></g><g stroke-linecap="round" transform="translate(1090 1290) rotate(0 150 60)"><path d="M30 0 C104.55 2.38, 180.58 1.22, 270 0 M30 0 C81.09 -2.11, 132.3 -1.23, 270 0 M270 0 C289.02 -1.08, 299.81 10.83, 300 30 M270 0 C287.82 -1.2, 297.9 10.61, 300 30 M300 30 C298.15 41.79, 299.34 54.73, 300 90 M300 30 C299.8 49.77, 300.06 71.56, 300 90 M300 90 C299.37 109.09, 291.03 118.72, 270 120 M300 90 C302.03 112.09, 290.65 117.9, 270 120 M270 120 C199.57 118.99, 125.58 119.43, 30 120 M270 120 C221.12 119.2, 171.24 119.08, 30 120 M30 120 C10.77 118.86, 0.77 110.67, 0 90 M30 120 C11.89 118.56, 1.83 111.05, 0 90 M0 90 C0.99 73.62, -1.76 55.68, 0 30 M0 90 C-1.06 69.43, 0.32 49.45, 0 30 M0 30 C-1.3 10.39, 10.57 -1.94, 30 0 M0 30 C-1.31 10.9, 9.38 2.22, 30 0" stroke="#1971c2" stroke-width="2" fill="none"></path></g><g transform="translate(1104.5083312988281 1297.5) rotate(0 135.49166870117188 52.5)"><text x="135.49166870117188" y="24.528" font-family="Virgil, Segoe UI Emoji" font-size="28px" fill="#1971c2" text-anchor="middle" style="white-space: pre;" direction="ltr" dominant-baseline="alphabetic">Directory and files </text><text x="135.49166870117188" y="59.528" font-family="Virgil, Segoe UI Emoji" font-size="28px" fill="#1971c2" text-anchor="middle" style="white-space: pre;" direction="ltr" dominant-baseline="alphabetic">Fuzzing (depending </text><text x="135.49166870117188" y="94.52799999999999" font-family="Virgil, Segoe UI Emoji" font-size="28px" fill="#1971c2" text-anchor="middle" style="white-space: pre;" direction="ltr" dominant-baseline="alphabetic">of the technology)</text></g><g stroke-linecap="round" transform="translate(790 1090) rotate(0 250 40)"><path d="M20 0 C185.3 -1.18, 352.86 -1.08, 480 0 M20 0 C185.74 0.59, 352.03 0.27, 480 0 M480 0 C494.68 -0.42, 499.08 6.01, 500 20 M480 0 C494.46 0.81, 498.95 8.27, 500 20 M500 20 C502.05 28.4, 501.89 41.61, 500 60 M500 20 C500 33.11, 499.5 43.6, 500 60 M500 60 C498.89 72.89, 492.74 79.47, 480 80 M500 60 C499.52 72.28, 494.1 80.19, 480 80 M480 80 C364.87 78.24, 249.51 77.71, 20 80 M480 80 C383.17 82.42, 287.21 82.28, 20 80 M20 80 C7.36 81.04, 0.09 72.54, 0 60 M20 80 C4.8 81.35, -1.72 73.63, 0 60 M0 60 C-1.97 47.5, 1.21 36.1, 0 20 M0 60 C-0.7 45.42, 0.19 30.93, 0 20 M0 20 C-0.23 6.09, 5.39 0.6, 20 0 M0 20 C1.19 4.6, 6.5 0.69, 20 0" stroke="#1971c2" stroke-width="2" fill="none"></path></g><g transform="translate(827.8083343505859 1095) rotate(0 212.19166564941406 35)"><text x="212.19166564941406" y="24.528" font-family="Virgil, Segoe UI Emoji" font-size="28px" fill="#1971c2" text-anchor="middle" style="white-space: pre;" direction="ltr" dominant-baseline="alphabetic">Technology identification </text><text x="212.19166564941406" y="59.528" font-family="Virgil, Segoe UI Emoji" font-size="28px" fill="#1971c2" text-anchor="middle" style="white-space: pre;" direction="ltr" dominant-baseline="alphabetic">(OS, CMS, librairies,VCS,dotfiles)</text></g><g stroke-linecap="round"><g transform="translate(1051.4703075907955 1011) rotate(0 1.081788233637326 39)"><path d="M-0.04 -0.74 C0.13 12.47, 1.71 65.29, 1.99 78.6 M-1.52 1.49 C-1.61 14.4, 0.6 64.15, 0.95 76.79" stroke="#1971c2" stroke-width="2" fill="none"></path></g><g transform="translate(1051.4703075907955 1011) rotate(0 1.081788233637326 39)"><path d="M-8.45 53.62 C-6.23 62.16, -0.42 70.38, 0.95 76.79 M-8.45 53.62 C-3.92 63.18, -1.21 70.98, 0.95 76.79" stroke="#1971c2" stroke-width="2" fill="none"></path></g><g transform="translate(1051.4703075907955 1011) rotate(0 1.081788233637326 39)"><path d="M8.64 53 C4.36 61.76, 3.66 70.22, 0.95 76.79 M8.64 53 C6.49 62.93, 2.52 70.98, 0.95 76.79" stroke="#1971c2" stroke-width="2" fill="none"></path></g></g><mask></mask><g stroke-linecap="round"><g transform="translate(1054 1171) rotate(0 88.81509936137081 59)"><path d="M0.54 -0.69 C26.64 5.67, 126.2 19.23, 155.53 39.08 C184.87 58.93, 172.93 105.37, 176.55 118.43 M-0.63 1.57 C25.35 8.05, 124.42 21.54, 154.34 40.66 C184.26 59.78, 175.05 103.38, 178.88 116.31" stroke="#1971c2" stroke-width="2" fill="none"></path></g><g transform="translate(1054 1171) rotate(0 88.81509936137081 59)"><path d="M168.65 93.5 C169.88 97.56, 173.34 101.42, 178.88 116.31 M168.65 93.5 C172.74 101.31, 175.78 108.58, 178.88 116.31" stroke="#1971c2" stroke-width="2" fill="none"></path></g><g transform="translate(1054 1171) rotate(0 88.81509936137081 59)"><path d="M185.71 92.26 C183.29 96.66, 183.11 100.79, 178.88 116.31 M185.71 92.26 C184.07 100.41, 181.38 108.1, 178.88 116.31" stroke="#1971c2" stroke-width="2" fill="none"></path></g></g><mask></mask><g stroke-linecap="round"><g transform="translate(1045.5 1171) rotate(0 -97.625 59)"><path d="M-0.43 0.28 C-29.48 6.83, -141.94 19.65, -174.36 39.26 C-206.77 58.86, -191.39 104.88, -194.93 117.89 M1.54 -0.62 C-27.56 5.56, -141.86 17.31, -174.7 37.27 C-207.55 57.23, -192.06 105.69, -195.52 119.15" stroke="#1971c2" stroke-width="2" fill="none"></path></g><g transform="translate(1045.5 1171) rotate(0 -97.625 59)"><path d="M-204.29 95.74 C-201.23 104.61, -198.68 110.17, -195.52 119.15 M-204.29 95.74 C-202.16 103.2, -198.8 110.39, -195.52 119.15" stroke="#1971c2" stroke-width="2" fill="none"></path></g><g transform="translate(1045.5 1171) rotate(0 -97.625 59)"><path d="M-187.19 95.58 C-189.19 104.43, -191.7 110.04, -195.52 119.15 M-187.19 95.58 C-190.03 102.99, -191.64 110.22, -195.52 119.15" stroke="#1971c2" stroke-width="2" fill="none"></path></g></g><mask></mask><g stroke-linecap="round" transform="translate(690 1510) rotate(0 350 30)"><path d="M15 0 C219.79 -1.55, 423.89 -1.26, 685 0 M15 0 C208.3 1.33, 400.51 0.94, 685 0 M685 0 C695.88 1.45, 698.83 4.11, 700 15 M685 0 C696.77 -1.1, 698.48 5.22, 700 15 M700 15 C701.18 24.29, 700.26 33.47, 700 45 M700 15 C700.53 24.35, 700.36 32.15, 700 45 M700 45 C701.8 54.11, 694.56 61.46, 685 60 M700 45 C697.87 53.32, 694.77 59.42, 685 60 M685 60 C455.44 58.43, 225.23 59.76, 15 60 M685 60 C433.22 58, 180.89 58.12, 15 60 M15 60 C5.09 60.28, 1.08 56.08, 0 45 M15 60 C3.27 59.77, -1.6 55.35, 0 45 M0 45 C0.91 35.86, 0.48 25.19, 0 15 M0 45 C0.17 38.12, 0.72 33.6, 0 15 M0 15 C0.24 6.19, 4.06 -0.23, 15 0 M0 15 C-0.1 4.67, 5.71 0.07, 15 0" stroke="#1971c2" stroke-width="2" fill="none"></path></g><g transform="translate(982.0250015258789 1522.5) rotate(0 57.974998474121094 17.5)"><text x="57.974998474121094" y="24.528" font-family="Virgil, Segoe UI Emoji" font-size="28px" fill="#1971c2" text-anchor="middle" style="white-space: pre;" direction="ltr" dominant-baseline="alphabetic">URL lists</text></g><g stroke-linecap="round"><g transform="translate(850 1410) rotate(0 0 49.5)"><path d="M0.91 0.95 C1.22 17.31, 1.02 81.54, 0.99 97.92 M-0.08 0.41 C0.24 16.9, 0.49 82.18, 0.56 98.9" stroke="#1971c2" stroke-width="2" fill="none"></path></g><g transform="translate(850 1410) rotate(0 0 49.5)"><path d="M-8.09 75.44 C-4.59 82.34, -6.01 87.21, 0.56 98.9 M-8.09 75.44 C-4.58 82.47, -1.79 91.02, 0.56 98.9" stroke="#1971c2" stroke-width="2" fill="none"></path></g><g transform="translate(850 1410) rotate(0 0 49.5)"><path d="M9.01 75.37 C8.64 82.41, 3.34 87.3, 0.56 98.9 M9.01 75.37 C7.01 82.46, 4.29 91.03, 0.56 98.9" stroke="#1971c2" stroke-width="2" fill="none"></path></g></g><mask></mask><g stroke-linecap="round"><g transform="translate(1251.0077934453711 1411) rotate(0 -0.4988068567997743 49)"><path d="M0.29 1.01 C-0.05 17.53, -0.66 82.24, -0.88 98.33 M-1.01 0.5 C-1.61 16.7, -1.63 80.03, -1.76 96.38" stroke="#1971c2" stroke-width="2" fill="none"></path></g><g transform="translate(1251.0077934453711 1411) rotate(0 -0.4988068567997743 49)"><path d="M-10.21 72.85 C-5.3 82.41, -3.07 91.57, -1.76 96.38 M-10.21 72.85 C-7.37 78.81, -5.32 85.17, -1.76 96.38" stroke="#1971c2" stroke-width="2" fill="none"></path></g><g transform="translate(1251.0077934453711 1411) rotate(0 -0.4988068567997743 49)"><path d="M6.89 72.92 C4.98 82.5, 0.39 91.63, -1.76 96.38 M6.89 72.92 C5.27 79.02, 2.86 85.35, -1.76 96.38" stroke="#1971c2" stroke-width="2" fill="none"></path></g></g><mask></mask><g stroke-linecap="round" transform="translate(650 1670) rotate(0 110 40)"><path d="M20 0 C72.44 1.76, 122.44 0.91, 200 0 M20 0 C84.38 -0.83, 148.41 0.24, 200 0 M200 0 C212.74 -0.08, 220.82 6.19, 220 20 M200 0 C213.36 1.62, 219.1 6.24, 220 20 M220 20 C220.42 33.26, 220.92 48.5, 220 60 M220 20 C220.26 33.11, 219.7 45.69, 220 60 M220 60 C220.35 71.41, 213.29 81.19, 200 80 M220 60 C221.8 72.7, 215.15 82.27, 200 80 M200 80 C159.32 80.04, 118.55 79.38, 20 80 M200 80 C148.38 80.13, 97.17 79.18, 20 80 M20 80 C6.3 78.57, 0.45 72.21, 0 60 M20 80 C4.61 77.95, 0.03 73.63, 0 60 M0 60 C-0.91 48.77, -1.96 32.33, 0 20 M0 60 C0.02 50.47, -0.31 40.75, 0 20 M0 20 C-0.75 5.98, 8.52 0.17, 20 0 M0 20 C0.68 8.35, 8.69 1.05, 20 0" stroke="#e03131" stroke-width="2" fill="none"></path></g><g transform="translate(720.6166648864746 1692.5) rotate(0 39.38333511352539 17.5)"><text x="39.38333511352539" y="24.528" font-family="Virgil, Segoe UI Emoji" font-size="28px" fill="#e03131" text-anchor="middle" style="white-space: pre;" direction="ltr" dominant-baseline="alphabetic">forms</text></g><g stroke-linecap="round" transform="translate(1250 1670) rotate(0 100 40)"><path d="M20 0 C71.41 -0.65, 124.84 -1.74, 180 0 M20 0 C64.47 -1.81, 109.93 -0.8, 180 0 M180 0 C195.04 -0.89, 201.35 5.3, 200 20 M180 0 C193.38 1.98, 201.87 5.83, 200 20 M200 20 C201.28 34.72, 198.57 49.36, 200 60 M200 20 C201.1 30.19, 201.14 37.98, 200 60 M200 60 C199.74 73.63, 194.87 80.87, 180 80 M200 60 C202.08 71.23, 192.9 81.31, 180 80 M180 80 C139.41 79.06, 95.8 79.31, 20 80 M180 80 C143.28 79.77, 105.3 79.8, 20 80 M20 80 C8.39 79.37, -0.9 72.12, 0 60 M20 80 C6.79 80.11, -0.54 75.39, 0 60 M0 60 C1.64 48.54, 0.39 39.44, 0 20 M0 60 C0.52 48.68, 0.42 36.61, 0 20 M0 20 C1.13 4.95, 4.73 -1.01, 20 0 M0 20 C-1.11 8.14, 5.55 0.79, 20 0" stroke="#e03131" stroke-width="2" fill="none"></path></g><g transform="translate(1295.8333320617676 1675) rotate(0 54.16666793823242 35)"><text x="54.16666793823242" y="24.528" font-family="Virgil, Segoe UI Emoji" font-size="28px" fill="#e03131" text-anchor="middle" style="white-space: pre;" direction="ltr" dominant-baseline="alphabetic">header </text><text x="54.16666793823242" y="59.528" font-family="Virgil, Segoe UI Emoji" font-size="28px" fill="#e03131" text-anchor="middle" style="white-space: pre;" direction="ltr" dominant-baseline="alphabetic">analysis</text></g><g stroke-linecap="round" transform="translate(1550 1670) rotate(0 100 40)"><path d="M20 0 C54.48 -2.89, 87.36 -1.29, 180 0 M20 0 C74.01 1.61, 127.83 1.52, 180 0 M180 0 C192.55 -0.29, 201.91 6.27, 200 20 M180 0 C191.9 2.13, 199.07 5.56, 200 20 M200 20 C200.89 35.53, 198.22 49.87, 200 60 M200 20 C199.95 29.84, 198.9 37.18, 200 60 M200 60 C201.08 72.73, 191.73 79.51, 180 80 M200 60 C201.34 72.22, 191.62 80.08, 180 80 M180 80 C146.89 78.82, 112.61 77.56, 20 80 M180 80 C137.48 79.51, 95.52 79.47, 20 80 M20 80 C5.53 79.23, -1.82 73.97, 0 60 M20 80 C8.36 81.16, -2.22 72.78, 0 60 M0 60 C1.51 46.92, -0.67 28.99, 0 20 M0 60 C0.66 49.92, 0.41 40.08, 0 20 M0 20 C-1.99 5.57, 8.44 -1.15, 20 0 M0 20 C0.88 4.77, 7.85 1.27, 20 0" stroke="#e03131" stroke-width="2" fill="none"></path></g><g transform="translate(1568.2333297729492 1692.5) rotate(0 81.76667022705078 17.5)"><text x="81.76667022705078" y="24.528" font-family="Virgil, Segoe UI Emoji" font-size="28px" fill="#e03131" text-anchor="middle" style="white-space: pre;" direction="ltr" dominant-baseline="alphabetic">SSL analysis</text></g><g stroke-linecap="round" transform="translate(350 1670) rotate(0 100 40)"><path d="M20 0 C74.34 2.23, 126.59 1.65, 180 0 M20 0 C79.28 0.5, 140.47 -0.73, 180 0 M180 0 C192.63 -0.86, 198.41 6.76, 200 20 M180 0 C194.91 2.18, 197.87 8.91, 200 20 M200 20 C201.4 33.77, 200.2 46.43, 200 60 M200 20 C200.75 34.39, 199.38 48.01, 200 60 M200 60 C200.71 72, 191.73 79.11, 180 80 M200 60 C200.88 71.43, 195.45 80.55, 180 80 M180 80 C130.22 79.07, 78.09 80.38, 20 80 M180 80 C124.36 80.06, 68.58 79.84, 20 80 M20 80 C8.11 80.62, -1.96 71.47, 0 60 M20 80 C4.58 80.71, -0.65 72.63, 0 60 M0 60 C1.28 52.54, -1.66 40.13, 0 20 M0 60 C-1.07 47.43, -0.35 32.65, 0 20 M0 20 C1.62 8.5, 6.81 0.09, 20 0 M0 20 C1.83 5.78, 5.01 -2, 20 0" stroke="#e03131" stroke-width="2" fill="none"></path></g><g transform="translate(377.15833282470703 1675) rotate(0 72.84166717529297 35)"><text x="72.84166717529297" y="24.528" font-family="Virgil, Segoe UI Emoji" font-size="28px" fill="#e03131" text-anchor="middle" style="white-space: pre;" direction="ltr" dominant-baseline="alphabetic">HTML </text><text x="72.84166717529297" y="59.528" font-family="Virgil, Segoe UI Emoji" font-size="28px" fill="#e03131" text-anchor="middle" style="white-space: pre;" direction="ltr" dominant-baseline="alphabetic">comments </text></g><g stroke-linecap="round" transform="translate(950 1670) rotate(0 100 40)"><path d="M20 0 C82.57 0.24, 140.76 2.74, 180 0 M20 0 C82.37 1.33, 143.27 1, 180 0 M180 0 C194.48 1.03, 199 8.65, 200 20 M180 0 C191.36 1.75, 198.32 8.81, 200 20 M200 20 C199.9 33.62, 198.86 46.77, 200 60 M200 20 C200.25 31.78, 200.5 44.17, 200 60 M200 60 C199.09 72.05, 191.48 78.15, 180 80 M200 60 C200.72 73.06, 192.5 82.1, 180 80 M180 80 C115.35 81.49, 52.53 81.99, 20 80 M180 80 C134.57 78.93, 89.9 78.57, 20 80 M20 80 C8.1 78.02, 1.29 71.86, 0 60 M20 80 C4.71 78.65, -1.25 74.17, 0 60 M0 60 C-0.48 50.64, -2.03 41.47, 0 20 M0 60 C-0.45 48.06, -0.14 36.55, 0 20 M0 20 C-0.33 6.49, 7.18 -1.32, 20 0 M0 20 C1.69 6.02, 5.75 -1.18, 20 0" stroke="#e03131" stroke-width="2" fill="none"></path></g><g transform="translate(969.625 1675) rotate(0 80.375 35)"><text x="80.375" y="24.528" font-family="Virgil, Segoe UI Emoji" font-size="28px" fill="#e03131" text-anchor="middle" style="white-space: pre;" direction="ltr" dominant-baseline="alphabetic">parameters </text><text x="80.375" y="59.528" font-family="Virgil, Segoe UI Emoji" font-size="28px" fill="#e03131" text-anchor="middle" style="white-space: pre;" direction="ltr" dominant-baseline="alphabetic">(GET/POST)</text></g><g stroke-linecap="round" transform="translate(130 1850) rotate(0 140 50)"><path d="M25 0 C76.64 1.19, 129.03 0.3, 255 0 M25 0 C72.65 0.62, 120.51 1.2, 255 0 M255 0 C273.16 0.58, 279.72 8.62, 280 25 M255 0 C271.4 2.22, 279.52 9.13, 280 25 M280 25 C279.11 41.1, 278.81 55.15, 280 75 M280 25 C280.24 42.57, 280.02 60.95, 280 75 M280 75 C279.91 92.83, 271.68 99.07, 255 100 M280 75 C277.81 92.57, 273.59 98.5, 255 100 M255 100 C193.86 99.03, 130.75 98.84, 25 100 M255 100 C197.73 102.31, 141.28 101.38, 25 100 M25 100 C8.84 98.3, 1.93 92.3, 0 75 M25 100 C8.37 100.45, -0.75 91.26, 0 75 M0 75 C0.19 61.47, -1.04 45.24, 0 25 M0 75 C-0.57 58.02, 0.35 40.82, 0 25 M0 25 C1.13 8.72, 7.84 1.96, 25 0 M0 25 C-2.01 8.1, 6.57 -2.11, 25 0" stroke="#e03131" stroke-width="2" fill="none"></path></g><g transform="translate(147.94166564941406 1865) rotate(0 122.05833435058594 35)"><text x="122.05833435058594" y="24.528" font-family="Virgil, Segoe UI Emoji" font-size="28px" fill="#e03131" text-anchor="middle" style="white-space: pre;" direction="ltr" dominant-baseline="alphabetic">login with default </text><text x="122.05833435058594" y="59.528" font-family="Virgil, Segoe UI Emoji" font-size="28px" fill="#e03131" text-anchor="middle" style="white-space: pre;" direction="ltr" dominant-baseline="alphabetic">credentials</text></g><g stroke-linecap="round" transform="translate(450 1850) rotate(0 150 50)"><path d="M25 0 C104.58 -2.9, 186.05 -1.93, 275 0 M25 0 C103.67 -2.36, 181.86 -2.1, 275 0 M275 0 C290.85 0.09, 299.38 6.44, 300 25 M275 0 C292.31 -0.56, 300.36 8.44, 300 25 M300 25 C301.36 35.96, 301.72 48.15, 300 75 M300 25 C300.1 34.31, 299.65 44.74, 300 75 M300 75 C301.14 91.04, 291.45 99.55, 275 100 M300 75 C300.15 90.75, 291.46 100.91, 275 100 M275 100 C184.66 99.94, 96.46 98.89, 25 100 M275 100 C186.85 101.49, 98.01 101.03, 25 100 M25 100 C6.54 99.47, -1.73 90.45, 0 75 M25 100 C6.91 102.15, 1.01 89.83, 0 75 M0 75 C0.84 58.53, 1.45 40.94, 0 25 M0 75 C-0.99 65.3, 0.7 53.98, 0 25 M0 25 C-0.61 6.69, 6.84 -0.17, 25 0 M0 25 C1.5 7.33, 8.36 1.87, 25 0" stroke="#e03131" stroke-width="2" fill="none"></path></g><g transform="translate(495.2750015258789 1865) rotate(0 104.7249984741211 35)"><text x="104.7249984741211" y="24.528" font-family="Virgil, Segoe UI Emoji" font-size="28px" fill="#e03131" text-anchor="middle" style="white-space: pre;" direction="ltr" dominant-baseline="alphabetic">bruteforce with</text><text x="104.7249984741211" y="59.528" font-family="Virgil, Segoe UI Emoji" font-size="28px" fill="#e03131" text-anchor="middle" style="white-space: pre;" direction="ltr" dominant-baseline="alphabetic">common creds</text></g><g stroke-linecap="round" transform="translate(1510 1910) rotate(0 100 50)"><path d="M25 0 C78.62 -0.39, 132.98 1.28, 175 0 M25 0 C77.89 0.67, 131.97 0.99, 175 0 M175 0 C193.17 -0.73, 199.51 6.83, 200 25 M175 0 C192.9 0.49, 199.77 9.82, 200 25 M200 25 C200.98 37.42, 201.73 47.46, 200 75 M200 25 C199.94 36.37, 200.48 47.62, 200 75 M200 75 C199.48 92.35, 192.5 101.14, 175 100 M200 75 C199.77 92.27, 190.56 100.89, 175 100 M175 100 C122.78 99.72, 70.5 100.04, 25 100 M175 100 C120.97 102.23, 65.62 101.79, 25 100 M25 100 C9.66 100.15, -1.22 93.18, 0 75 M25 100 C9.38 99.15, -1.22 93.44, 0 75 M0 75 C-0.28 66.12, 0.12 52.65, 0 25 M0 75 C-0.63 61.37, -0.56 47.07, 0 25 M0 25 C0.64 8.87, 6.93 -0.44, 25 0 M0 25 C-0.19 7.38, 7.89 -2.05, 25 0" stroke="#e03131" stroke-width="2" fill="none"></path></g><g transform="translate(1577.3250007629395 1942.5) rotate(0 32.67499923706055 17.5)"><text x="32.67499923706055" y="24.528" font-family="Virgil, Segoe UI Emoji" font-size="28px" fill="#e03131" text-anchor="middle" style="white-space: pre;" direction="ltr" dominant-baseline="alphabetic">SSRF</text></g><g stroke-linecap="round" transform="translate(790 1910) rotate(0 100 50)"><path d="M25 0 C65.6 0.5, 101.07 1.92, 175 0 M25 0 C79.73 -1.16, 136.55 -0.98, 175 0 M175 0 C190.01 -0.44, 199.6 9.24, 200 25 M175 0 C190.59 -1.17, 197.81 9.4, 200 25 M200 25 C199.26 33.94, 201.77 44.64, 200 75 M200 25 C199.76 39.29, 200.6 54.25, 200 75 M200 75 C198.47 90.55, 192.58 98.03, 175 100 M200 75 C200.96 89.91, 191.99 99.91, 175 100 M175 100 C137.09 98.19, 101.94 99.85, 25 100 M175 100 C140.87 98.83, 106.91 99.49, 25 100 M25 100 C6.34 100.9, -0.33 90.44, 0 75 M25 100 C8.69 97.72, -0.96 89.84, 0 75 M0 75 C0.31 62.67, -1.38 53.08, 0 25 M0 75 C0.25 64.07, 0.99 52.81, 0 25 M0 25 C0.61 6.96, 7.93 -0.7, 25 0 M0 25 C-1.41 7.72, 7.31 -1.8, 25 0" stroke="#e03131" stroke-width="2" fill="none"></path></g><g transform="translate(865.6666660308838 1942.5) rotate(0 24.33333396911621 17.5)"><text x="24.33333396911621" y="24.528" font-family="Virgil, Segoe UI Emoji" font-size="28px" fill="#e03131" text-anchor="middle" style="white-space: pre;" direction="ltr" dominant-baseline="alphabetic">XSS</text></g><g stroke-linecap="round" transform="translate(1030 1910) rotate(0 100 50)"><path d="M25 0 C55.5 1.07, 84.33 1.38, 175 0 M25 0 C58.8 1, 91.28 -0.23, 175 0 M175 0 C189.79 -0.83, 200.49 7.02, 200 25 M175 0 C193.74 -2.29, 201.04 7.96, 200 25 M200 25 C199.24 35.34, 198.67 49.2, 200 75 M200 25 C199.45 41.93, 199.41 56.83, 200 75 M200 75 C198.09 91.17, 192.89 100.99, 175 100 M200 75 C202.04 92.37, 190.08 99.53, 175 100 M175 100 C134.38 98.03, 93.69 98.25, 25 100 M175 100 C141.34 99.88, 106.29 101.47, 25 100 M25 100 C7.27 98.26, 1.06 91.1, 0 75 M25 100 C9.57 101.49, 1.64 91.98, 0 75 M0 75 C0.9 61.7, -0.56 44.82, 0 25 M0 75 C-0.58 56.86, -0.79 37.91, 0 25 M0 25 C1.42 9.98, 7.75 -1.7, 25 0 M0 25 C0.36 8.24, 10.15 -1.54, 25 0" stroke="#e03131" stroke-width="2" fill="none"></path></g><g transform="translate(1041.0083312988281 1942.5) rotate(0 88.99166870117188 17.5)"><text x="88.99166870117188" y="24.528" font-family="Virgil, Segoe UI Emoji" font-size="28px" fill="#e03131" text-anchor="middle" style="white-space: pre;" direction="ltr" dominant-baseline="alphabetic">SQL injection</text></g><g stroke-linecap="round" transform="translate(1750 1910) rotate(0 100 50)"><path d="M25 0 C58.82 0.63, 94.95 0.13, 175 0 M25 0 C62.1 -0.31, 99.65 -0.24, 175 0 M175 0 C190.2 1.19, 201.25 6.46, 200 25 M175 0 C191.37 2.27, 198.54 9.2, 200 25 M200 25 C199.09 35.59, 197.75 47, 200 75 M200 25 C200.84 40.13, 199.42 56.05, 200 75 M200 75 C198.55 90.97, 191.17 99.91, 175 100 M200 75 C201.47 92.77, 191.46 100.59, 175 100 M175 100 C128.96 99.7, 82.2 102.32, 25 100 M175 100 C134.56 101.29, 96.16 100.3, 25 100 M25 100 C9.05 100.67, -0.81 90.52, 0 75 M25 100 C9.81 98.88, -1.58 92.59, 0 75 M0 75 C0.61 57.02, -2.17 36.77, 0 25 M0 75 C-0.78 55.86, -0.7 36.02, 0 25 M0 25 C-0.88 8.96, 9.31 -1.03, 25 0 M0 25 C0.55 7.59, 10.02 -1.78, 25 0" stroke="#e03131" stroke-width="2" fill="none"></path></g><g transform="translate(1822.7916660308838 1942.5) rotate(0 27.20833396911621 17.5)"><text x="27.20833396911621" y="24.528" font-family="Virgil, Segoe UI Emoji" font-size="28px" fill="#e03131" text-anchor="middle" style="white-space: pre;" direction="ltr" dominant-baseline="alphabetic">XXE</text></g><g stroke-linecap="round" transform="translate(1270 1910) rotate(0 100 50)"><path d="M25 0 C70.54 -0.94, 114.23 -1.4, 175 0 M25 0 C64.37 1.28, 104.28 0.53, 175 0 M175 0 C192.2 0.46, 198.34 7.57, 200 25 M175 0 C190.45 -0.6, 197.9 6.85, 200 25 M200 25 C199.46 34.16, 200.43 43.64, 200 75 M200 25 C199.73 40.79, 200.7 56.51, 200 75 M200 75 C198.77 90.42, 190.3 98.72, 175 100 M200 75 C198.56 91.07, 190.52 101.44, 175 100 M175 100 C129.79 96.77, 86.07 97.77, 25 100 M175 100 C129.72 98.57, 85.44 99.35, 25 100 M25 100 C9.31 101.88, -1.89 91.41, 0 75 M25 100 C7.16 102.26, -1.13 91.61, 0 75 M0 75 C-0.52 58.61, -0.99 39.97, 0 25 M0 75 C-0.28 59.91, -0.68 46.04, 0 25 M0 25 C-1.07 9.37, 7.54 -0.4, 25 0 M0 25 C-0.88 8.11, 10.03 0.89, 25 0" stroke="#e03131" stroke-width="2" fill="none"></path></g><g transform="translate(1321.2583351135254 1942.5) rotate(0 48.74166488647461 17.5)"><text x="48.74166488647461" y="24.528" font-family="Virgil, Segoe UI Emoji" font-size="28px" fill="#e03131" text-anchor="middle" style="white-space: pre;" direction="ltr" dominant-baseline="alphabetic">LFI/RFI</text></g><g stroke-linecap="round" transform="translate(790 2110) rotate(0 100 130)"><path d="M32 0 C62.62 -0.34, 92.42 1, 168 0 M32 0 C67.29 0.02, 103.82 -0.31, 168 0 M168 0 C191.3 -1.38, 201.99 10.13, 200 32 M168 0 C188.11 -1.21, 199.62 8.7, 200 32 M200 32 C198.38 88.39, 199.29 142.74, 200 228 M200 32 C197.87 87, 197.35 144.44, 200 228 M200 228 C201.11 251.16, 187.95 259.86, 168 260 M200 228 C201.76 248.27, 189.64 259.91, 168 260 M168 260 C122.66 258.65, 80.97 260.35, 32 260 M168 260 C116.07 259.91, 66.33 260.18, 32 260 M32 260 C12.06 258.17, 1.28 250.51, 0 228 M32 260 C10.16 261.91, 1.98 249.06, 0 228 M0 228 C0.64 180.08, 1 134.07, 0 32 M0 228 C-1.93 161.54, -1.17 93.93, 0 32 M0 32 C-1.54 9.89, 10.46 1.57, 32 0 M0 32 C-0.55 11.73, 12.62 1.86, 32 0" stroke="#e03131" stroke-width="2" fill="none"></path></g><g transform="translate(803.4916687011719 2170) rotate(0 86.50833129882812 70)"><text x="86.50833129882812" y="24.528" font-family="Virgil, Segoe UI Emoji" font-size="28px" fill="#e03131" text-anchor="middle" style="white-space: pre;" direction="ltr" dominant-baseline="alphabetic">test with </text><text x="86.50833129882812" y="59.528" font-family="Virgil, Segoe UI Emoji" font-size="28px" fill="#e03131" text-anchor="middle" style="white-space: pre;" direction="ltr" dominant-baseline="alphabetic">selenium + </text><text x="86.50833129882812" y="94.52799999999999" font-family="Virgil, Segoe UI Emoji" font-size="28px" fill="#e03131" text-anchor="middle" style="white-space: pre;" direction="ltr" dominant-baseline="alphabetic">web server </text><text x="86.50833129882812" y="129.528" font-family="Virgil, Segoe UI Emoji" font-size="28px" fill="#e03131" text-anchor="middle" style="white-space: pre;" direction="ltr" dominant-baseline="alphabetic">for blind XSS</text></g><g stroke-linecap="round" transform="translate(1030 2110) rotate(0 100 130)"><path d="M32 0 C72.52 0.87, 113.04 -0.99, 168 0 M32 0 C74.29 1.53, 114.87 0.36, 168 0 M168 0 C190.67 -1.99, 199 10.31, 200 32 M168 0 C189.15 -0.32, 198.81 11.27, 200 32 M200 32 C198.89 104.47, 199.1 181.38, 200 228 M200 32 C199.36 98.89, 198.55 164.3, 200 228 M200 228 C200.06 250.56, 188.23 260.05, 168 260 M200 228 C197.87 250.35, 190.4 260.82, 168 260 M168 260 C133.57 260.77, 100.61 258.39, 32 260 M168 260 C138.69 259.47, 107.79 260.69, 32 260 M32 260 C10.13 258.93, -0.05 247.73, 0 228 M32 260 C10.76 259.64, -1.69 248.16, 0 228 M0 228 C-3.18 156.92, -3.18 88.97, 0 32 M0 228 C1.11 158.6, 0.43 87.59, 0 32 M0 32 C1.06 11.27, 9.01 -1.75, 32 0 M0 32 C-1.14 9.82, 11.58 -0.55, 32 0" stroke="#e03131" stroke-width="2" fill="none"></path></g><g transform="translate(1036.7666702270508 2152.5) rotate(0 93.23332977294922 87.5)"><text x="93.23332977294922" y="24.528" font-family="Virgil, Segoe UI Emoji" font-size="28px" fill="#e03131" text-anchor="middle" style="white-space: pre;" direction="ltr" dominant-baseline="alphabetic">DB </text><text x="93.23332977294922" y="59.528" font-family="Virgil, Segoe UI Emoji" font-size="28px" fill="#e03131" text-anchor="middle" style="white-space: pre;" direction="ltr" dominant-baseline="alphabetic">identification </text><text x="93.23332977294922" y="94.52799999999999" font-family="Virgil, Segoe UI Emoji" font-size="28px" fill="#e03131" text-anchor="middle" style="white-space: pre;" direction="ltr" dominant-baseline="alphabetic">+ error </text><text x="93.23332977294922" y="129.528" font-family="Virgil, Segoe UI Emoji" font-size="28px" fill="#e03131" text-anchor="middle" style="white-space: pre;" direction="ltr" dominant-baseline="alphabetic">message </text><text x="93.23332977294922" y="164.528" font-family="Virgil, Segoe UI Emoji" font-size="28px" fill="#e03131" text-anchor="middle" style="white-space: pre;" direction="ltr" dominant-baseline="alphabetic">analysis</text></g><g stroke-linecap="round" transform="translate(1270 2110) rotate(0 100 130)"><path d="M32 0 C83.41 -0.54, 133.34 0.32, 168 0 M32 0 C61.69 1.73, 90.93 0.48, 168 0 M168 0 C190.02 0.95, 199.46 11.7, 200 32 M168 0 C190.12 0.87, 200.13 9.97, 200 32 M200 32 C201.99 95.54, 200.84 159.73, 200 228 M200 32 C198.96 93.3, 198.94 154.81, 200 228 M200 228 C201.64 250.43, 188.89 261.41, 168 260 M200 228 C198.46 251.6, 189.79 261.85, 168 260 M168 260 C135.63 260.85, 101.34 259.31, 32 260 M168 260 C137.72 260.83, 107.34 259.1, 32 260 M32 260 C9.94 259.46, -0.48 247.6, 0 228 M32 260 C11.72 258.22, -1.02 251.49, 0 228 M0 228 C1.53 172.12, -0.3 114.19, 0 32 M0 228 C-2.36 168.49, -1.22 110.4, 0 32 M0 32 C-1.03 9.49, 12.47 0.56, 32 0 M0 32 C0.56 10.46, 12.23 1.16, 32 0" stroke="#e03131" stroke-width="2" fill="none"></path></g><g transform="translate(1276.7416687011719 2117.5) rotate(0 93.25833129882812 122.5)"><text x="93.25833129882812" y="24.528" font-family="Virgil, Segoe UI Emoji" font-size="28px" fill="#e03131" text-anchor="middle" style="white-space: pre;" direction="ltr" dominant-baseline="alphabetic">error </text><text x="93.25833129882812" y="59.528" font-family="Virgil, Segoe UI Emoji" font-size="28px" fill="#e03131" text-anchor="middle" style="white-space: pre;" direction="ltr" dominant-baseline="alphabetic">message </text><text x="93.25833129882812" y="94.52799999999999" font-family="Virgil, Segoe UI Emoji" font-size="28px" fill="#e03131" text-anchor="middle" style="white-space: pre;" direction="ltr" dominant-baseline="alphabetic">analysis + </text><text x="93.25833129882812" y="129.528" font-family="Virgil, Segoe UI Emoji" font-size="28px" fill="#e03131" text-anchor="middle" style="white-space: pre;" direction="ltr" dominant-baseline="alphabetic">trying to </text><text x="93.25833129882812" y="164.528" font-family="Virgil, Segoe UI Emoji" font-size="28px" fill="#e03131" text-anchor="middle" style="white-space: pre;" direction="ltr" dominant-baseline="alphabetic">dump </text><text x="93.25833129882812" y="199.528" font-family="Virgil, Segoe UI Emoji" font-size="28px" fill="#e03131" text-anchor="middle" style="white-space: pre;" direction="ltr" dominant-baseline="alphabetic">common files </text><text x="93.25833129882812" y="234.528" font-family="Virgil, Segoe UI Emoji" font-size="28px" fill="#e03131" text-anchor="middle" style="white-space: pre;" direction="ltr" dominant-baseline="alphabetic">if OS is ID</text></g><g stroke-linecap="round" transform="translate(1510 2110) rotate(0 100 130)"><path d="M32 0 C82.62 -0.86, 131.8 1.87, 168 0 M32 0 C78.33 -0.22, 124.64 1.31, 168 0 M168 0 C190.29 -1.86, 198.7 9.13, 200 32 M168 0 C190.86 -0.1, 199.32 11.59, 200 32 M200 32 C200.71 77.55, 199.35 123.82, 200 228 M200 32 C199.13 72.72, 198.47 115.14, 200 228 M200 228 C200.64 251.16, 187.42 261.61, 168 260 M200 228 C198.63 248.68, 189.78 261.51, 168 260 M168 260 C139.02 260.22, 113.92 258.65, 32 260 M168 260 C131.82 259.53, 94.46 259.93, 32 260 M32 260 C10.06 259.9, -1.26 249.71, 0 228 M32 260 C9.22 258.9, -0.53 247.17, 0 228 M0 228 C-0.52 154.46, 0.67 82.35, 0 32 M0 228 C1.42 156.86, 1.18 86.79, 0 32 M0 32 C0.63 9.07, 12.4 -0.11, 32 0 M0 32 C-1.85 11.2, 11.59 -1.11, 32 0" stroke="#e03131" stroke-width="2" fill="none"></path></g><g transform="translate(1523.4916687011719 2152.5) rotate(0 86.50833129882812 87.5)"><text x="86.50833129882812" y="24.528" font-family="Virgil, Segoe UI Emoji" font-size="28px" fill="#e03131" text-anchor="middle" style="white-space: pre;" direction="ltr" dominant-baseline="alphabetic">error </text><text x="86.50833129882812" y="59.528" font-family="Virgil, Segoe UI Emoji" font-size="28px" fill="#e03131" text-anchor="middle" style="white-space: pre;" direction="ltr" dominant-baseline="alphabetic">message </text><text x="86.50833129882812" y="94.52799999999999" font-family="Virgil, Segoe UI Emoji" font-size="28px" fill="#e03131" text-anchor="middle" style="white-space: pre;" direction="ltr" dominant-baseline="alphabetic">analysis + </text><text x="86.50833129882812" y="129.528" font-family="Virgil, Segoe UI Emoji" font-size="28px" fill="#e03131" text-anchor="middle" style="white-space: pre;" direction="ltr" dominant-baseline="alphabetic">web server </text><text x="86.50833129882812" y="164.528" font-family="Virgil, Segoe UI Emoji" font-size="28px" fill="#e03131" text-anchor="middle" style="white-space: pre;" direction="ltr" dominant-baseline="alphabetic">for blind XSS</text></g><g stroke-linecap="round" transform="translate(1750 2110) rotate(0 110 127.5)"><path d="M32 0 C79.78 -0.5, 131.37 1.25, 188 0 M32 0 C85.53 -0.02, 136.77 -0.37, 188 0 M188 0 C209.96 -1.66, 221.25 9.13, 220 32 M188 0 C208.61 1.15, 218.99 12.9, 220 32 M220 32 C222.33 101.72, 220.95 172.25, 220 223 M220 32 C220.68 71.03, 219.59 110.41, 220 223 M220 223 C220.75 244.02, 207.38 256.92, 188 255 M220 223 C218.95 243.63, 208.79 254.14, 188 255 M188 255 C156.13 253.77, 123.06 256.02, 32 255 M188 255 C142.86 253.97, 97.43 255.01, 32 255 M32 255 C12.08 255.15, -0.47 245.37, 0 223 M32 255 C10.82 254.65, 2.24 243.19, 0 223 M0 223 C0.24 152.48, -0.58 81.66, 0 32 M0 223 C-0.16 180.53, 0.61 140.49, 0 32 M0 32 C-1.99 10.22, 9.93 -1.79, 32 0 M0 32 C0.88 11.14, 10.42 1.44, 32 0" stroke="#e03131" stroke-width="2" fill="none"></path></g><g transform="translate(1755.2333297729492 2150) rotate(0 104.76667022705078 87.5)"><text x="104.76667022705078" y="24.528" font-family="Virgil, Segoe UI Emoji" font-size="28px" fill="#e03131" text-anchor="middle" style="white-space: pre;" direction="ltr" dominant-baseline="alphabetic">XXE test with </text><text x="104.76667022705078" y="59.528" font-family="Virgil, Segoe UI Emoji" font-size="28px" fill="#e03131" text-anchor="middle" style="white-space: pre;" direction="ltr" dominant-baseline="alphabetic">common files if</text><text x="104.76667022705078" y="94.52799999999999" font-family="Virgil, Segoe UI Emoji" font-size="28px" fill="#e03131" text-anchor="middle" style="white-space: pre;" direction="ltr" dominant-baseline="alphabetic">OS is ID or web</text><text x="104.76667022705078" y="129.528" font-family="Virgil, Segoe UI Emoji" font-size="28px" fill="#e03131" text-anchor="middle" style="white-space: pre;" direction="ltr" dominant-baseline="alphabetic">server for blind</text><text x="104.76667022705078" y="164.528" font-family="Virgil, Segoe UI Emoji" font-size="28px" fill="#e03131" text-anchor="middle" style="white-space: pre;" direction="ltr" dominant-baseline="alphabetic">XXE</text></g><g stroke-linecap="round" transform="translate(290 2050) rotate(0 150 80)"><path d="M32 0 C123.77 1.77, 217.75 0.82, 268 0 M32 0 C98.74 -2.18, 167.73 -1.7, 268 0 M268 0 C290 -1.57, 300.59 10.46, 300 32 M268 0 C290.08 0.39, 298.23 8.43, 300 32 M300 32 C299.38 66.83, 301.31 99.8, 300 128 M300 32 C300.1 55.87, 300.99 77.18, 300 128 M300 128 C298.74 149.19, 287.52 158.3, 268 160 M300 128 C299.03 149.4, 291.41 159.26, 268 160 M268 160 C216.05 161.36, 164.38 159.86, 32 160 M268 160 C215.02 160.09, 161.71 160.19, 32 160 M32 160 C11.85 161.85, 0 151.02, 0 128 M32 160 C9.81 161.98, 1.31 150.34, 0 128 M0 128 C0.93 107.59, 1.56 85.69, 0 32 M0 128 C0.36 89.28, 0.71 51.72, 0 32 M0 32 C-0.72 9.48, 9.18 -0.06, 32 0 M0 32 C1.26 11.11, 9.27 0.32, 32 0" stroke="#e03131" stroke-width="2" fill="none"></path></g><g transform="translate(301.15834045410156 2095) rotate(0 138.84165954589844 35)"><text x="138.84165954589844" y="24.528" font-family="Virgil, Segoe UI Emoji" font-size="28px" fill="#e03131" text-anchor="middle" style="white-space: pre;" direction="ltr" dominant-baseline="alphabetic">identification of bad </text><text x="138.84165954589844" y="59.528" font-family="Virgil, Segoe UI Emoji" font-size="28px" fill="#e03131" text-anchor="middle" style="white-space: pre;" direction="ltr" dominant-baseline="alphabetic">login response</text></g><g stroke-linecap="round" transform="translate(50 1670) rotate(0 100 40)"><path d="M20 0 C82.89 1.8, 146.06 0.59, 180 0 M20 0 C53.45 0.14, 85.25 -0.62, 180 0 M180 0 C191.41 0.22, 201.14 6.77, 200 20 M180 0 C195.57 -1, 199.05 7.4, 200 20 M200 20 C200.78 33.15, 201.56 45.85, 200 60 M200 20 C200.15 32.3, 199.92 43.22, 200 60 M200 60 C199.51 74.29, 194.73 80.99, 180 80 M200 60 C197.78 72.72, 193.22 81.45, 180 80 M180 80 C132.2 77, 86.79 79.07, 20 80 M180 80 C129.19 78.16, 77.43 79.25, 20 80 M20 80 C5.93 80.81, -1.41 72.15, 0 60 M20 80 C7.8 81.25, 1.17 75.08, 0 60 M0 60 C-2.05 46.75, -1.69 30.16, 0 20 M0 60 C0.79 47.9, 0.93 35.44, 0 20 M0 20 C-1.47 6.41, 7.67 1.72, 20 0 M0 20 C-0.53 5.27, 8.32 1.61, 20 0" stroke="#e03131" stroke-width="2" fill="none"></path></g><g transform="translate(71.18333435058594 1675) rotate(0 78.81666564941406 35)"><text x="78.81666564941406" y="24.528" font-family="Virgil, Segoe UI Emoji" font-size="28px" fill="#e03131" text-anchor="middle" style="white-space: pre;" direction="ltr" dominant-baseline="alphabetic">vulnerables</text><text x="78.81666564941406" y="59.528" font-family="Virgil, Segoe UI Emoji" font-size="28px" fill="#e03131" text-anchor="middle" style="white-space: pre;" direction="ltr" dominant-baseline="alphabetic">librairies</text></g><g stroke-linecap="round"><g transform="translate(1050 1571) rotate(0 0 49)"><path d="M-0.65 -0.87 C-0.7 15.44, -0.7 82.12, -0.79 98.61 M1.21 1.29 C1.58 17.18, 1.53 80.45, 1.51 96.81" stroke="#e03131" stroke-width="2" fill="none"></path></g><g transform="translate(1050 1571) rotate(0 0 49)"><path d="M-7.03 73.31 C-6.1 78.21, -1.39 83.72, 1.51 96.81 M-7.03 73.31 C-3.69 81.07, -2.73 87.31, 1.51 96.81" stroke="#e03131" stroke-width="2" fill="none"></path></g><g transform="translate(1050 1571) rotate(0 0 49)"><path d="M10.07 73.32 C6.52 78.12, 6.74 83.63, 1.51 96.81 M10.07 73.32 C8.16 81.08, 3.87 87.32, 1.51 96.81" stroke="#e03131" stroke-width="2" fill="none"></path></g></g><mask></mask><g stroke-linecap="round"><g transform="translate(1056.5 1571) rotate(0 146.41666666666674 49)"><path d="M1.02 -1.1 C43.49 5.39, 205.23 21.7, 253.99 38.03 C302.74 54.36, 287 86.93, 293.54 96.9 M0.1 0.93 C42.52 7.63, 204.45 22.94, 253.29 39.06 C302.13 55.18, 286.42 87.68, 293.15 97.64" stroke="#e03131" stroke-width="2" fill="none"></path></g><g transform="translate(1056.5 1571) rotate(0 146.41666666666674 49)"><path d="M280.83 75.88 C281.7 81.67, 284.8 87.13, 293.15 97.64 M280.83 75.88 C282.5 80.35, 285.05 85.74, 293.15 97.64" stroke="#e03131" stroke-width="2" fill="none"></path></g><g transform="translate(1056.5 1571) rotate(0 146.41666666666674 49)"><path d="M297.7 73.06 C294.6 79.65, 293.76 85.77, 293.15 97.64 M297.7 73.06 C295.86 78.09, 294.9 84.07, 293.15 97.64" stroke="#e03131" stroke-width="2" fill="none"></path></g></g><mask></mask><g stroke-linecap="round"><g transform="translate(1052.112368625838 1571) rotate(0 297.2031693476646 49)"><path d="M0.86 0.13 C80.61 6.76, 378.2 22.97, 477.32 39.27 C576.43 55.58, 576.02 88.25, 595.54 97.97 M-0.15 -0.84 C79.49 5.44, 376.81 20.61, 476.07 37.29 C575.32 53.98, 575.6 89.07, 595.37 99.27" stroke="#e03131" stroke-width="2" fill="none"></path></g><g transform="translate(1052.112368625838 1571) rotate(0 297.2031693476646 49)"><path d="M572.38 89.45 C577.21 90.32, 582.09 95.15, 595.37 99.27 M572.38 89.45 C578.88 92.19, 586.77 95.74, 595.37 99.27" stroke="#e03131" stroke-width="2" fill="none"></path></g><g transform="translate(1052.112368625838 1571) rotate(0 297.2031693476646 49)"><path d="M584.07 76.97 C586.49 80.44, 589.01 87.8, 595.37 99.27 M584.07 76.97 C587.09 83.38, 591.51 90.65, 595.37 99.27" stroke="#e03131" stroke-width="2" fill="none"></path></g></g><mask></mask><g stroke-linecap="round"><g transform="translate(1044 1571) rotate(0 -136.66666666666674 49)"><path d="M-0.72 0.86 C-39.95 7.3, -188.84 23.6, -234.39 39.85 C-279.94 56.09, -267.68 88.58, -274.02 98.35 M1.1 0.27 C-38.4 6.89, -189.5 22.18, -235.54 38.17 C-281.58 54.16, -269.11 85.92, -275.15 96.19" stroke="#e03131" stroke-width="2" fill="none"></path></g><g transform="translate(1044 1571) rotate(0 -136.66666666666674 49)"><path d="M-279.42 71.56 C-276.12 80.32, -274.51 89.19, -275.15 96.19 M-279.42 71.56 C-277.57 78.87, -276.97 87.86, -275.15 96.19" stroke="#e03131" stroke-width="2" fill="none"></path></g><g transform="translate(1044 1571) rotate(0 -136.66666666666674 49)"><path d="M-262.59 74.57 C-265.72 82.08, -270.53 89.81, -275.15 96.19 M-262.59 74.57 C-266.29 80.96, -271.24 88.96, -275.15 96.19" stroke="#e03131" stroke-width="2" fill="none"></path></g></g><mask></mask><g stroke-linecap="round"><g transform="translate(1050.0989637930325 1571) rotate(0 -307.91060232374184 49)"><path d="M0.12 -0.92 C-86.25 5.7, -415.3 22.25, -518.15 38.85 C-620.99 55.44, -600.63 88.85, -616.94 98.64 M-1.27 1.21 C-87.75 8.1, -416.5 24.4, -518.73 40.3 C-620.95 56.21, -598.45 86.94, -614.63 96.63" stroke="#e03131" stroke-width="2" fill="none"></path></g><g transform="translate(1050.0989637930325 1571) rotate(0 -307.91060232374184 49)"><path d="M-609.26 72.22 C-612.64 80.95, -613.02 85.46, -614.63 96.63 M-609.26 72.22 C-610.8 81.27, -613.81 90.21, -614.63 96.63" stroke="#e03131" stroke-width="2" fill="none"></path></g><g transform="translate(1050.0989637930325 1571) rotate(0 -307.91060232374184 49)"><path d="M-594.82 81.38 C-602.6 87.3, -607.44 88.97, -614.63 96.63 M-594.82 81.38 C-601.46 87.15, -609.56 92.85, -614.63 96.63" stroke="#e03131" stroke-width="2" fill="none"></path></g></g><mask></mask><g stroke-linecap="round"><g transform="translate(1030.0000000000005 1571) rotate(0 -449.0000000000002 49)"><path d="M1.06 -0.3 C-129.02 6.3, -629.79 23.62, -779.64 40.05 C-929.49 56.49, -878.4 88.5, -898.04 98.3 M0.16 -1.5 C-130.13 4.75, -630.57 21.6, -780.4 38.48 C-930.23 55.36, -879.4 90.07, -898.82 99.77" stroke="#e03131" stroke-width="2" fill="none"></path></g><g transform="translate(1030.0000000000005 1571) rotate(0 -449.0000000000002 49)"><path d="M-897.89 74.79 C-898.65 84.71, -896.74 93.36, -898.82 99.77 M-897.89 74.79 C-898 81.98, -899.08 91.17, -898.82 99.77" stroke="#e03131" stroke-width="2" fill="none"></path></g><g transform="translate(1030.0000000000005 1571) rotate(0 -449.0000000000002 49)"><path d="M-882.05 81.23 C-888.74 88.89, -892.73 95.14, -898.82 99.77 M-882.05 81.23 C-887.33 86.44, -893.55 93.54, -898.82 99.77" stroke="#e03131" stroke-width="2" fill="none"></path></g></g><mask></mask><g stroke-linecap="round"><g transform="translate(764.6838959352926 1751) rotate(0 -72.63824426394262 49)"><path d="M-0.03 1.17 C-19.01 7.86, -89.64 23.49, -113.91 39.44 C-138.19 55.39, -140.66 87.09, -145.69 96.85 M-1.5 0.73 C-20.58 7.12, -90.26 21.41, -114.46 37.55 C-138.65 53.69, -141.27 87.3, -146.67 97.57" stroke="#e03131" stroke-width="2" fill="none"></path></g><g transform="translate(764.6838959352926 1751) rotate(0 -72.63824426394262 49)"><path d="M-147.43 72.58 C-145.41 81.36, -146.39 86.89, -146.67 97.57 M-147.43 72.58 C-147.86 77.41, -147.37 82.29, -146.67 97.57" stroke="#e03131" stroke-width="2" fill="none"></path></g><g transform="translate(764.6838959352926 1751) rotate(0 -72.63824426394262 49)"><path d="M-131.19 77.94 C-134.01 85.11, -139.86 89.03, -146.67 97.57 M-131.19 77.94 C-135 81.68, -137.82 85.47, -146.67 97.57" stroke="#e03131" stroke-width="2" fill="none"></path></g></g><mask></mask><g stroke-linecap="round"><g transform="translate(770 1750) rotate(0 -250 50)"><path d="M0.53 1.19 C-72.9 7.92, -356.11 24.49, -439.63 40.96 C-523.15 57.44, -490.38 90.07, -500.6 100.05 M-0.65 0.76 C-74.29 7.13, -356.88 22.57, -440.39 39.34 C-523.89 56.11, -491.54 91.5, -501.68 101.39" stroke="#e03131" stroke-width="2" fill="none"></path></g><g transform="translate(770 1750) rotate(0 -250 50)"><path d="M-507.08 76.98 C-502.94 86.85, -501.26 94.52, -501.68 101.39 M-507.08 76.98 C-504.82 84.58, -503.56 91.33, -501.68 101.39" stroke="#e03131" stroke-width="2" fill="none"></path></g><g transform="translate(770 1750) rotate(0 -250 50)"><path d="M-490.13 79.22 C-492.44 88.32, -497.22 95.13, -501.68 101.39 M-490.13 79.22 C-493 86.25, -496.89 92.33, -501.68 101.39" stroke="#e03131" stroke-width="2" fill="none"></path></g></g><mask></mask><g stroke-linecap="round"><g transform="translate(770 1750) rotate(0 60 80)"><path d="M0.51 0.1 C16.98 10.42, 80.03 34.55, 100.01 61.13 C120 87.72, 117.11 143.1, 120.41 159.59 M-0.69 -0.9 C15.53 9.2, 78.98 32.67, 99.07 59.6 C119.16 86.54, 116.38 143.76, 119.86 160.69" stroke="#e03131" stroke-width="2" fill="none"></path></g><g transform="translate(770 1750) rotate(0 60 80)"><path d="M109.19 138.08 C113.42 147.01, 119.37 156.63, 119.86 160.69 M109.19 138.08 C112.97 143.88, 115.35 150.19, 119.86 160.69" stroke="#e03131" stroke-width="2" fill="none"></path></g><g transform="translate(770 1750) rotate(0 60 80)"><path d="M126.22 136.52 C123.7 146.14, 122.9 156.38, 119.86 160.69 M126.22 136.52 C125.47 142.74, 123.33 149.47, 119.86 160.69" stroke="#e03131" stroke-width="2" fill="none"></path></g></g><mask></mask><g stroke-linecap="round"><g transform="translate(770 1750) rotate(0 180 80)"><path d="M-0.74 0.85 C52.8 10.74, 261.03 32.49, 321.12 59.08 C381.21 85.67, 353.42 143.43, 359.77 160.41 M1.07 0.26 C54.57 10.28, 261.12 33.8, 320.76 60.13 C380.4 86.47, 352.5 141.82, 358.89 158.28" stroke="#e03131" stroke-width="2" fill="none"></path></g><g transform="translate(770 1750) rotate(0 180 80)"><path d="M350.56 134.71 C354.31 143.36, 353.74 147.84, 358.89 158.28 M350.56 134.71 C352.43 141.53, 355.63 150.98, 358.89 158.28" stroke="#e03131" stroke-width="2" fill="none"></path></g><g transform="translate(770 1750) rotate(0 180 80)"><path d="M367.66 134.87 C366.53 143.37, 361.07 147.8, 358.89 158.28 M367.66 134.87 C363.82 141.77, 361.3 151.17, 358.89 158.28" stroke="#e03131" stroke-width="2" fill="none"></path></g></g><mask></mask><g stroke-linecap="round"><g transform="translate(1050 1750) rotate(0 160 80)"><path d="M1.16 1.05 C48 14.52, 226.86 53.42, 280.07 80.06 C333.28 106.7, 313.62 147.65, 320.43 160.91 M0.31 0.55 C47.08 14.3, 225.9 55.21, 279.16 81.63 C332.42 108.04, 312.8 145.89, 319.9 159.04" stroke="#e03131" stroke-width="2" fill="none"></path></g><g transform="translate(1050 1750) rotate(0 160 80)"><path d="M308.91 136.58 C312.93 141.54, 313.7 147.09, 319.9 159.04 M308.91 136.58 C312.9 145.11, 318.09 152.98, 319.9 159.04" stroke="#e03131" stroke-width="2" fill="none"></path></g><g transform="translate(1050 1750) rotate(0 160 80)"><path d="M325.92 134.78 C326.18 140.29, 323.21 146.24, 319.9 159.04 M325.92 134.78 C323.53 143.93, 322.33 152.47, 319.9 159.04" stroke="#e03131" stroke-width="2" fill="none"></path></g></g><mask></mask><g stroke-linecap="round"><g transform="translate(1051.8017378578988 1751.1295309394598) rotate(0 40 80)"><path d="M-0.22 -1.13 C12.9 11.73, 64.24 51.2, 77.81 77.95 C91.38 104.7, 80.93 145.57, 81.19 159.36 M-1.8 0.89 C11.21 13.81, 62.85 52.43, 76.66 79.01 C90.47 105.58, 80.61 147.09, 81.04 160.35" stroke="#e03131" stroke-width="2" fill="none"></path></g><g transform="translate(1051.8017378578988 1751.1295309394598) rotate(0 40 80)"><path d="M74.39 136.25 C74.16 141.02, 76 149.04, 81.04 160.35 M74.39 136.25 C76.08 142.41, 76.75 147.25, 81.04 160.35" stroke="#e03131" stroke-width="2" fill="none"></path></g><g transform="translate(1051.8017378578988 1751.1295309394598) rotate(0 40 80)"><path d="M91.44 137.61 C87.37 142.04, 85.4 149.76, 81.04 160.35 M91.44 137.61 C88.92 143.54, 85.39 148.04, 81.04 160.35" stroke="#e03131" stroke-width="2" fill="none"></path></g></g><mask></mask><g stroke-linecap="round"><g transform="translate(1050 1750) rotate(0 -80 80)"><path d="M-0.05 0.7 C-23.29 13.81, -113.02 52.72, -139.66 79.31 C-166.3 105.91, -156.55 146.69, -159.9 160.29 M-1.54 0.03 C-24.89 13.22, -113.92 53.54, -140.43 80.49 C-166.95 107.45, -157.46 148.71, -160.62 161.76" stroke="#e03131" stroke-width="2" fill="none"></path></g><g transform="translate(1050 1750) rotate(0 -80 80)"><path d="M-168.21 137.94 C-164.75 145.24, -164.92 151.58, -160.62 161.76 M-168.21 137.94 C-164.88 145.01, -164.07 153.17, -160.62 161.76" stroke="#e03131" stroke-width="2" fill="none"></path></g><g transform="translate(1050 1750) rotate(0 -80 80)"><path d="M-151.12 138.63 C-152.51 145.74, -157.51 151.88, -160.62 161.76 M-151.12 138.63 C-153.33 145.61, -158.06 153.54, -160.62 161.76" stroke="#e03131" stroke-width="2" fill="none"></path></g></g><mask></mask><g stroke-linecap="round"><g transform="translate(1050 1750) rotate(0 280 80)"><path d="M0.89 0 C84.5 6.33, 407.84 12.22, 501.16 38.89 C594.48 65.56, 551.04 139.96, 560.83 160.03 M-0.09 -1.04 C83.49 5.31, 407.39 12.77, 500.82 39.84 C594.25 66.91, 550.63 141.32, 560.5 161.36" stroke="#e03131" stroke-width="2" fill="none"></path></g><g transform="translate(1050 1750) rotate(0 280 80)"><path d="M552.27 137.75 C554.62 145.82, 554.92 151.46, 560.5 161.36 M552.27 137.75 C554.6 145.65, 558.19 152.35, 560.5 161.36" stroke="#e03131" stroke-width="2" fill="none"></path></g><g transform="translate(1050 1750) rotate(0 280 80)"><path d="M569.37 137.99 C567.23 146.12, 563.05 151.7, 560.5 161.36 M569.37 137.99 C566.53 145.71, 564.95 152.34, 560.5 161.36" stroke="#e03131" stroke-width="2" fill="none"></path></g></g><mask></mask><g stroke-linecap="round"><g transform="translate(1067.5 1751) rotate(0 390.83333333333337 79)"><path d="M-0.48 -0.74 C113.16 5.75, 551.92 11.36, 682.2 37.89 C812.49 64.43, 764.56 138.6, 781.23 158.49 M1.47 1.48 C114.89 8.17, 551.3 13.03, 681.1 38.85 C810.89 64.67, 763.29 136.56, 780.23 156.41" stroke="#e03131" stroke-width="2" fill="none"></path></g><g transform="translate(1067.5 1751) rotate(0 390.83333333333337 79)"><path d="M768.32 134.43 C770.82 141.22, 774.14 148.24, 780.23 156.41 M768.32 134.43 C771.93 141.94, 776.3 150.03, 780.23 156.41" stroke="#e03131" stroke-width="2" fill="none"></path></g><g transform="translate(1067.5 1751) rotate(0 390.83333333333337 79)"><path d="M785.23 131.91 C782.13 139.47, 779.88 147.31, 780.23 156.41 M785.23 131.91 C783.09 140.18, 781.69 149.12, 780.23 156.41" stroke="#e03131" stroke-width="2" fill="none"></path></g></g><mask></mask><g stroke-linecap="round"><g transform="translate(270 1950) rotate(0 90 50)"><path d="M-0.59 0.55 C26.01 7.01, 129.17 22.72, 159.3 39.42 C189.42 56.11, 176.79 90.73, 180.18 100.7 M1.3 -0.21 C28.31 6.36, 131.94 24.16, 161.64 40.65 C191.34 57.13, 176.5 88.84, 179.5 98.73" stroke="#e03131" stroke-width="2" fill="none"></path></g><g transform="translate(270 1950) rotate(0 90 50)"><path d="M171.69 74.98 C174.89 80.43, 175.17 88.48, 179.5 98.73 M171.69 74.98 C173.52 84.17, 177.47 92.47, 179.5 98.73" stroke="#e03131" stroke-width="2" fill="none"></path></g><g transform="translate(270 1950) rotate(0 90 50)"><path d="M188.78 75.51 C187.24 80.73, 182.78 88.64, 179.5 98.73 M188.78 75.51 C184.49 84.4, 182.32 92.52, 179.5 98.73" stroke="#e03131" stroke-width="2" fill="none"></path></g></g><mask></mask><g stroke-linecap="round"><g transform="translate(590 1950) rotate(0 -70 50)"><path d="M-0.11 0.99 C-19.86 7.77, -96.02 23.56, -119.2 40.13 C-142.37 56.7, -135.61 90.43, -139.17 100.41 M-1.63 0.46 C-21.41 7.51, -96.75 25.44, -119.73 41.74 C-142.7 58.05, -136.02 88.39, -139.49 98.28" stroke="#e03131" stroke-width="2" fill="none"></path></g><g transform="translate(590 1950) rotate(0 -70 50)"><path d="M-145.47 74.01 C-142.49 81.2, -142.48 87.11, -139.49 98.28 M-145.47 74.01 C-144.44 81.53, -142.18 91.12, -139.49 98.28" stroke="#e03131" stroke-width="2" fill="none"></path></g><g transform="translate(590 1950) rotate(0 -70 50)"><path d="M-128.47 75.85 C-129.58 82.58, -133.66 88.04, -139.49 98.28 M-128.47 75.85 C-133.12 82.75, -136.54 91.73, -139.49 98.28" stroke="#e03131" stroke-width="2" fill="none"></path></g></g><mask></mask><g stroke-linecap="round"><g transform="translate(890 2010) rotate(0 0 50)"><path d="M-0.85 0.41 C-0.84 16.99, 0.74 83.94, 1.07 100.48 M0.91 -0.42 C0.76 15.71, 0.67 81.74, 0.69 98.61" stroke="#e03131" stroke-width="2" fill="none"></path></g><g transform="translate(890 2010) rotate(0 0 50)"><path d="M-7.85 75.12 C-3.66 86.08, -0.23 95.32, 0.69 98.61 M-7.85 75.12 C-5.05 80.91, -2.79 88.73, 0.69 98.61" stroke="#e03131" stroke-width="2" fill="none"></path></g><g transform="translate(890 2010) rotate(0 0 50)"><path d="M9.25 75.12 C6.81 85.96, 3.61 95.2, 0.69 98.61 M9.25 75.12 C7.39 80.98, 4.99 88.8, 0.69 98.61" stroke="#e03131" stroke-width="2" fill="none"></path></g></g><mask></mask><g stroke-linecap="round"><g transform="translate(1130 2010) rotate(0 0 50)"><path d="M0.19 -0.39 C-0.07 16.52, -1.15 83.5, -1.17 100.26 M-1.18 -1.64 C-1.11 14.99, 0.84 81.07, 0.92 98.27" stroke="#e03131" stroke-width="2" fill="none"></path></g><g transform="translate(1130 2010) rotate(0 0 50)"><path d="M-8.06 74.94 C-5.97 80.68, -1.92 90.43, 0.92 98.27 M-8.06 74.94 C-5.51 82.96, -2.15 89.74, 0.92 98.27" stroke="#e03131" stroke-width="2" fill="none"></path></g><g transform="translate(1130 2010) rotate(0 0 50)"><path d="M9.04 74.63 C5.48 80.5, 3.87 90.35, 0.92 98.27 M9.04 74.63 C6.24 82.66, 4.24 89.53, 0.92 98.27" stroke="#e03131" stroke-width="2" fill="none"></path></g></g><mask></mask><g stroke-linecap="round"><g transform="translate(1370 2010) rotate(0 0 50)"><path d="M-0.18 0.48 C-0.44 17.15, -1.02 84.35, -1.14 100.78 M-1.73 -0.31 C-1.68 15.95, 0.43 82.36, 0.97 99.06" stroke="#e03131" stroke-width="2" fill="none"></path></g><g transform="translate(1370 2010) rotate(0 0 50)"><path d="M-8.31 75.85 C-4.25 81.74, -0.64 89.9, 0.97 99.06 M-8.31 75.85 C-6.75 81.41, -3.51 85.66, 0.97 99.06" stroke="#e03131" stroke-width="2" fill="none"></path></g><g transform="translate(1370 2010) rotate(0 0 50)"><path d="M8.78 75.31 C7.12 81.36, 5 89.69, 0.97 99.06 M8.78 75.31 C6.54 80.91, 5.97 85.28, 0.97 99.06" stroke="#e03131" stroke-width="2" fill="none"></path></g></g><mask></mask><g stroke-linecap="round"><g transform="translate(1610 2010) rotate(0 0 50)"><path d="M0.2 -0.49 C0.11 16.12, -0.2 82.05, -0.26 98.98 M-1.15 -1.79 C-1.45 14.99, -1.36 83.14, -1.35 99.97" stroke="#e03131" stroke-width="2" fill="none"></path></g><g transform="translate(1610 2010) rotate(0 0 50)"><path d="M-9.92 76.49 C-8.06 83.69, -6.17 91.47, -1.35 99.97 M-9.92 76.49 C-6.12 84.79, -4.1 94.6, -1.35 99.97" stroke="#e03131" stroke-width="2" fill="none"></path></g><g transform="translate(1610 2010) rotate(0 0 50)"><path d="M7.18 76.48 C3.46 83.71, -0.22 91.5, -1.35 99.97 M7.18 76.48 C4.37 84.75, -0.23 94.57, -1.35 99.97" stroke="#e03131" stroke-width="2" fill="none"></path></g></g><mask></mask><g stroke-linecap="round"><g transform="translate(1851.8352245785377 2011) rotate(0 1.7663311066298775 49)"><path d="M1.14 0.48 C1.46 16.86, 2.62 81.38, 3.04 97.51 M0.29 -0.32 C0.3 16.3, 1.38 82.37, 1.84 98.8" stroke="#e03131" stroke-width="2" fill="none"></path></g><g transform="translate(1851.8352245785377 2011) rotate(0 1.7663311066298775 49)"><path d="M-7.2 75.49 C-2.97 83.84, -0.99 94.21, 1.84 98.8 M-7.2 75.49 C-5.19 82.01, -3.31 87.29, 1.84 98.8" stroke="#e03131" stroke-width="2" fill="none"></path></g><g transform="translate(1851.8352245785377 2011) rotate(0 1.7663311066298775 49)"><path d="M9.89 75.13 C7.33 83.79, 2.53 94.3, 1.84 98.8 M9.89 75.13 C7.76 81.61, 5.5 86.97, 1.84 98.8" stroke="#e03131" stroke-width="2" fill="none"></path></g></g><mask></mask><g transform="translate(590 10) rotate(0 461.3083190917969 55.551652979794426)"><text x="461.3083190917969" y="77.86119681647988" font-family="Virgil, Segoe UI Emoji" font-size="88.8826447676711px" fill="#1e1e1e" text-anchor="middle" style="white-space: pre;" direction="ltr" dominant-baseline="alphabetic">Scanning engine logic</text></g><g stroke-linecap="round" transform="translate(10 370) rotate(0 340 290)"><path d="M32 0 C209.46 1.86, 386.47 3.11, 648 0 M648 0 C671.28 0.45, 678.04 10.72, 680 32 M680 32 C681.39 217.12, 680.98 403.67, 680 548 M680 548 C678.99 570.75, 667.47 578.52, 648 580 M648 580 C461.45 581.56, 273.66 581.26, 32 580 M32 580 C9.49 581.74, 0.02 568.49, 0 548 M0 548 C-0.83 381.74, 0.15 215.07, 0 32 M0 32 C-1.01 10.63, 9.94 0.71, 32 0" stroke="#2f9e44" stroke-width="4.5" fill="none" stroke-dasharray="8 12"></path></g><g transform="translate(30 310) rotate(0 83.68333435058594 22.5)"><text x="83.68333435058594" y="31.536" font-family="Virgil, Segoe UI Emoji" font-size="36px" fill="#2f9e44" text-anchor="middle" style="white-space: pre;" direction="ltr" dominant-baseline="alphabetic">(optional)</text></g><g stroke-linecap="round" transform="translate(1410 470) rotate(0 340 330)"><path d="M32 0 C274.76 0.67, 518.3 0.1, 648 0 M648 0 C667.48 0.73, 680 9.57, 680 32 M680 32 C681.45 228.66, 680.56 425.85, 680 628 M680 628 C679.32 649.01, 669.24 661.77, 648 660 M648 660 C503.57 660.44, 360.85 660.61, 32 660 M32 660 C11.18 658.04, 1.42 651.08, 0 628 M0 628 C-0.01 457.05, 0.65 285.85, 0 32 M0 32 C0.32 9.82, 12.1 -1.56, 32 0" stroke="#2f9e44" stroke-width="4.5" fill="none" stroke-dasharray="8 12"></path></g><g transform="translate(1910 410) rotate(0 83.68333435058594 22.5)"><text x="83.68333435058594" y="31.536" font-family="Virgil, Segoe UI Emoji" font-size="36px" fill="#2f9e44" text-anchor="middle" style="white-space: pre;" direction="ltr" dominant-baseline="alphabetic">(optional)</text></g><g stroke-linecap="round" transform="translate(1250 1873.5294117647059) rotate(0 380 268.2352941176471)"><path d="M32 0 C231.71 -2.71, 430.85 -3.03, 728 0 M728 0 C750.82 -1.4, 758.34 10.6, 760 32 M760 32 C758.03 151.64, 759.19 269.48, 760 504.47 M760 504.47 C761.38 527.41, 748.33 536.34, 728 536.47 M728 536.47 C582.47 537.64, 436.33 538.05, 32 536.47 M32 536.47 C8.81 538.36, 0.46 526.86, 0 504.47 M0 504.47 C0.29 365.93, 0.72 226.95, 0 32 M0 32 C-0.56 12.64, 9.62 0.3, 32 0" stroke="#2f9e44" stroke-width="4.5" fill="none" stroke-dasharray="8 12"></path></g><g transform="translate(1810 2430) rotate(0 88.60588343003212 23.823529411764753)"><text x="88.60588343003216" y="33.39105882352941" font-family="Virgil, Segoe UI Emoji" font-size="38.11764705882353px" fill="#2f9e44" text-anchor="middle" style="white-space: pre;" direction="ltr" dominant-baseline="alphabetic">(optional)</text></g><g stroke-linecap="round" transform="translate(1890 10) rotate(0 50 50)"><path d="M25 0 C37.89 -2.85, 53.91 2.51, 75 0 C90.12 -1.5, 102.75 7.56, 100 25 C98.88 39.37, 97.66 55.68, 100 75 C98.77 93.49, 90.62 102.88, 75 100 C57.91 102.03, 37.79 97.7, 25 100 C11.42 101.3, -0.45 93.98, 0 75 C-2.23 53.2, -2.85 36.77, 0 25 C1.94 8.67, 8.36 -1.92, 25 0" stroke="none" stroke-width="0" fill="#1971c2"></path><path d="M25 0 C41.09 0.58, 58.05 0.27, 75 0 M25 0 C42.75 1.03, 61.28 0.79, 75 0 M75 0 C90.29 -1.54, 98.59 6.42, 100 25 M75 0 C93.08 1.66, 101.42 7.1, 100 25 M100 25 C98.17 40.9, 99.17 53.53, 100 75 M100 25 C99.68 44.55, 99.65 62.3, 100 75 M100 75 C98.75 91.71, 90.87 100.14, 75 100 M100 75 C98.57 93.47, 93.55 99.95, 75 100 M75 100 C55.06 98.74, 37.56 100.73, 25 100 M75 100 C62.54 99.69, 51.33 99.03, 25 100 M25 100 C7.94 101.28, -1.25 92.98, 0 75 M25 100 C8.25 100.04, 0.48 90.26, 0 75 M0 75 C1.28 55.44, 0.61 37.55, 0 25 M0 75 C0.38 60.23, -0.26 43.76, 0 25 M0 25 C1.27 8.62, 9.82 0.32, 25 0 M0 25 C-0.38 10.21, 10.26 -0.29, 25 0" stroke="#1971c2" stroke-width="1" fill="none"></path></g><g transform="translate(2010 50) rotate(0 168.28334045410156 22.5)"><text x="168.28334045410156" y="31.536" font-family="Virgil, Segoe UI Emoji" font-size="36px" fill="#1971c2" text-anchor="middle" style="white-space: pre;" direction="ltr" dominant-baseline="alphabetic">Enumeration phase</text></g><g stroke-linecap="round" transform="translate(1890 130) rotate(0 50 50)"><path d="M25 0 C38.58 2.93, 48.87 -0.37, 75 0 C91.86 0.07, 103.59 6.15, 100 25 C96.63 33.9, 103.21 51.37, 100 75 C102.19 93.13, 91.31 99.89, 75 100 C56.81 97.6, 35.81 101.91, 25 100 C5.46 99.06, 2.85 93.47, 0 75 C2.03 62.94, 2.21 49.1, 0 25 C-1.96 4.85, 10.94 3.57, 25 0" stroke="none" stroke-width="0" fill="#e03131"></path><path d="M25 0 C34.46 1.45, 45.99 0.89, 75 0 M25 0 C36.66 0.32, 48.34 1.22, 75 0 M75 0 C93.36 -0.74, 100.56 7.85, 100 25 M75 0 C89.85 -1.82, 99.4 9.34, 100 25 M100 25 C101.04 36.84, 102.28 49.4, 100 75 M100 25 C101.01 38.5, 100.91 51.85, 100 75 M100 75 C99.23 92.62, 92.35 99.31, 75 100 M100 75 C97.78 93.32, 92.94 101.65, 75 100 M75 100 C57.86 99.87, 41.08 98.33, 25 100 M75 100 C65.35 99.66, 55.51 100.03, 25 100 M25 100 C8.52 100.83, -0.05 90.94, 0 75 M25 100 C7.26 98.08, 0.37 93.77, 0 75 M0 75 C1.42 65.11, 1.77 53.78, 0 25 M0 75 C0.67 59.74, -0.68 43.44, 0 25 M0 25 C1.16 8.88, 7.43 1.63, 25 0 M0 25 C0.96 9.95, 10.32 2.21, 25 0" stroke="#e03131" stroke-width="1" fill="none"></path></g><g transform="translate(2011.5666809082031 170) rotate(0 246.71665954589844 22.5)"><text x="246.71665954589844" y="31.536" font-family="Virgil, Segoe UI Emoji" font-size="36px" fill="#e03131" text-anchor="middle" style="white-space: pre;" direction="ltr" dominant-baseline="alphabetic">Analysis / Exploitation phase</text></g></svg>
